<?xml version="1.0" standalone="no"?>
<!DOCTYPE svg PUBLIC "-//W3C//DTD SVG 1.1//EN" "http://www.w3.org/Graphics/SVG/1.1/DTD/svg11.dtd" >
<svg xmlns="http://www.w3.org/2000/svg">
<metadata></metadata>
<defs>
<font id="van_condensed_probold_italic" horiz-adv-x="1216" >
<font-face units-per-em="2048" ascent="1638" descent="-410" />
<missing-glyph horiz-adv-x="491" />
<glyph unicode="&#xfb01;" horiz-adv-x="1167" d="M987 0h-223q-12 0 -20.5 9t-8.5 22l103 727q-1 11 -3 17t-10 12t-22 6h-203q-13 0 -22 -9t-11 -22l-180 -1213q-8 -41 -47 -41h-201q-19 0 -28 12t-9 29l172 1209q0 14 -9 24.5t-17 10.5h-111q-31 0 -31 30l21 160q7 33 39 33h115q14 0 23 10t11 23l31 196 q27 177 133 279t283 102q80 0 127 -39q16 -13 16 -37l-33 -161q-7 -31 -32 -31q-10 0 -27 3t-33 3q-68 0 -106 -46.5t-45 -105.5l-25 -165q0 -31 33 -31h496q12 0 23 -10t11 -23l-143 -950q-6 -33 -37 -33zM889 1337q0 71 49 120.5t121 49.5q71 0 120.5 -49.5t49.5 -120.5 q0 -72 -49.5 -121t-120.5 -49q-72 0 -121 49t-49 121z" />
<glyph unicode="&#xfb02;" horiz-adv-x="1171" d="M995 0h-225q-12 0 -20.5 9t-8.5 22l181 1267q0 17 -10 27t-25 10h-88q-81 0 -122 -45.5t-48 -105.5l-21 -137q0 -31 33 -31h143q14 0 23.5 -12t9.5 -25l-22 -156q-2 -12 -13 -21t-24 -9h-156q-13 0 -22 -9t-11 -22l-178 -1213q-8 -41 -47 -41h-205q-19 0 -28 12t-9 29 l172 1209q0 14 -9 24.5t-17 10.5h-113q-29 0 -29 30l21 158q7 35 37 35h117q14 0 23 10t11 23l21 129q28 173 144.5 277t295.5 104h441q32 0 32 -35l-217 -1491q-6 -33 -37 -33z" />
<glyph unicode="&#xfb03;" horiz-adv-x="1738" d="M1559 0h-224q-12 0 -20 9t-8 22l102 725q-5 37 -39 37h-203q-12 0 -21 -10.5t-11 -24.5l-168 -1127q-8 -41 -47 -41h-201q-19 0 -28 12t-9 29l160 1127q0 14 -9.5 24.5t-17.5 10.5h-215q-13 0 -22 -9t-11 -22l-180 -1213q-8 -41 -47 -41h-201q-19 0 -28 12t-9 29 l172 1209q0 14 -9 24.5t-17 10.5h-113q-31 0 -31 24l23 166q7 33 39 33h115q14 0 23 10t11 23l4 28q27 177 133 279t283 102q86 0 127 -41q17 -17 17 -37l-33 -159q-7 -31 -33 -31q-9 0 -25.5 3t-33.5 3q-66 0 -104.5 -40t-45.5 -95l-2 -14q0 -15 10 -23t25 -8h211 q14 0 23.5 10t11.5 23l30 196q27 177 133 279t283 102q80 0 127 -39q17 -14 17 -39l-33 -159q-7 -31 -33 -31q-2 0 -21.5 3t-37.5 3q-68 0 -106.5 -46.5t-45.5 -105.5l-25 -165q0 -31 33 -31h500q13 0 24 -10t11 -23l-144 -950q-3 -18 -11 -25.5t-25 -7.5zM1456 1337 q0 71 49 120.5t121 49.5q70 0 120 -49.5t50 -120.5q0 -72 -49.5 -121t-120.5 -49q-72 0 -121 49t-49 121z" />
<glyph unicode="&#xfb04;" horiz-adv-x="1714" d="M1792 1524l-217 -1491q-1 -15 -11.5 -24t-25.5 -9h-221q-31 0 -31 33l180 1265q0 17 -9.5 27t-24.5 10h-70q-43 0 -75.5 -14t-50.5 -37.5t-27.5 -47.5t-12.5 -52l-20 -137q0 -31 32 -31h144q14 0 23 -12t9 -25l-22 -156q-2 -12 -13 -21t-24 -9h-158q-13 0 -21.5 -9 t-10.5 -22l-168 -1131q-8 -41 -47 -41h-205q-19 0 -28 12t-9 29l164 1127q0 14 -9.5 24.5t-17.5 10.5h-213q-13 0 -22 -9t-11 -22l-178 -1213q-8 -41 -47 -41h-205q-19 0 -28 12t-9 29l172 1209q0 14 -9 24.5t-17 10.5h-113q-31 0 -31 24v8l21 158q7 33 39 33h117 q14 0 23 10t11 23l9 47q27 174 131 268t284 94q88 0 125 -39q17 -17 17 -37l-33 -159q-7 -31 -33 -31q-15 0 -29.5 3t-33.5 3q-65 0 -101 -39.5t-43 -95.5l-2 -16q0 -31 33 -31h209q14 0 23.5 10t11.5 23l22 133q30 173 143.5 275t292.5 102h420q31 0 31 -35z" />
<glyph horiz-adv-x="0" />
<glyph horiz-adv-x="0" />
<glyph horiz-adv-x="682" />
<glyph unicode="&#xd;" horiz-adv-x="491" />
<glyph unicode=" "  horiz-adv-x="491" />
<glyph unicode="&#x09;" horiz-adv-x="491" />
<glyph unicode="&#xa0;" horiz-adv-x="491" />
<glyph unicode="!" horiz-adv-x="686" d="M512 492h-176q-27 0 -27 24v8l94 867q3 30 35 30h258q27 0 27 -30l-174 -867q-6 -32 -37 -32zM195 147q0 75 52.5 128t127.5 53t127.5 -53t52.5 -128t-52.5 -127.5t-127.5 -52.5t-127.5 52.5t-52.5 127.5z" />
<glyph unicode="&#x22;" horiz-adv-x="878" d="M584 1421q24 0 24 -20v-10l-104 -390q-9 -30 -35 -30h-156q-14 0 -20 6.5t-6 23.5l47 390q6 30 37 30h213zM920 1421q26 0 26 -20q0 -1 -1 -4.5t-1 -5.5l-104 -390q-9 -30 -35 -30h-156q-14 0 -20 6.5t-6 23.5l47 390q6 30 37 30h213z" />
<glyph unicode="#" horiz-adv-x="1488" d="M1511 854h-192q-15 0 -27.5 -11t-15.5 -26l-29 -199q0 -18 11.5 -30.5t31.5 -12.5h150q22 0 22 -22v-174q0 -23 -22 -23h-191q-17 0 -28.5 -11t-14.5 -26l-39 -288q-2 -11 -11.5 -21t-20.5 -10h-234q-24 0 -24 29l38 284q0 19 -12 31t-31 12h-159q-36 0 -43 -37l-39 -290 q-6 -29 -31 -29h-235q-25 0 -25 27l39 284q0 45 -43 45h-143q-23 0 -23 23v174q0 22 23 22h186q15 0 27.5 10t15.5 25l29 203q0 19 -14.5 30t-28.5 11h-160q-12 0 -19.5 8.5t-7.5 20.5v153q0 8 7 16.5t16 8.5h202q34 0 43 35l43 299q4 28 25 28h240q22 0 22 -28l-39 -291 q0 -18 12.5 -30.5t30.5 -12.5h160q34 0 43 35l45 299q1 12 12 20t23 8h227q23 0 23 -28l-41 -295q0 -17 11 -28t30 -11h155q25 0 25 -25v-159q0 -23 -25 -23zM987 811q0 18 -11.5 30.5t-31.5 12.5h-162q-36 0 -43 -35l-26 -198q0 -18 13 -32t30 -14h157q15 0 28.5 11 t14.5 26z" />
<glyph unicode="$" horiz-adv-x="1126" d="M868 1620l-20 -166q147 -15 233 -110.5t86 -231.5q0 -42 -4 -65q-1 -13 -11.5 -20t-23.5 -7h-219q-30 0 -30 31v8q2 12 2 37q0 57 -38 93t-112 36q-88 0 -131 -45.5t-43 -114.5q0 -26 10 -49.5t20.5 -37t30.5 -34.5l336 -250q131 -99 131 -274q0 -208 -105.5 -327.5 t-305.5 -119.5l-25 -168q-4 -32 -51 -32h-78q-39 0 -39 32l25 168q-160 10 -261.5 108t-101.5 241q0 21 4 61q3 27 33 27h230q26 0 26 -31q-2 -10 -2 -29q0 -71 51.5 -110t118.5 -39q182 0 182 164q0 63 -45 96l-321 233q-158 115 -158 320q0 192 116.5 309.5t301.5 136.5 l20 160q5 33 52 33h77q39 0 39 -33z" />
<glyph unicode="%" horiz-adv-x="1875" d="M1421 1421h193q28 0 28 -24q0 -9 -6 -21l-952 -1360q-13 -16 -31 -16h-192q-29 0 -29 23q0 8 8 20l949 1360q12 18 32 18zM614 1257q-42 0 -64.5 -22t-27.5 -57l-26 -170q0 -38 23 -56t54 -18q80 0 91 76l26 174q0 31 -19 52t-57 21zM623 1456q118 0 204 -70.5t86 -185.5 l-24 -196q-18 -136 -103.5 -202.5t-224.5 -66.5q-113 0 -204 65t-91 173q0 21 2 31l27 184q20 132 106 200t222 68zM1516 492q-42 0 -65 -22.5t-28 -57.5l-26 -170q0 -38 23.5 -56t54.5 -18q79 0 90 76l26 174q0 31 -18.5 52.5t-56.5 21.5zM1524 690q118 0 204.5 -70.5 t86.5 -185.5l-25 -196q-18 -136 -103.5 -202.5t-224.5 -66.5q-113 0 -204 65t-91 173q0 21 2 31l27 184q20 132 106 200t222 68z" />
<glyph unicode="&#x26;" horiz-adv-x="1492" d="M1509 690q27 0 27 -24q0 -15 -14 -29l-297 -252q-15 -10 -15 -29q0 -16 11 -32l206 -285q5 -10 5 -14q0 -25 -27 -25h-264q-30 0 -49 27l-72 98q-13 16 -27 16q-16 0 -32 -16q-88 -88 -166 -124t-183 -36q-93 0 -170.5 24.5t-137 73t-93 127t-33.5 181.5q0 83 23 151 t67 119t92 87t113 71q16 10 16 30q0 18 -10 31q-1 2 -12.5 18.5t-15.5 23t-14 24.5t-14.5 32.5t-10.5 35t-8.5 43.5t-2.5 48q0 94 34.5 167.5t93.5 117t131.5 66t154.5 22.5q92 0 176.5 -44.5t137.5 -124t53 -171.5q0 -53 -14 -99.5t-33 -78t-49 -61.5t-51 -45.5t-50.5 -35 t-36.5 -24.5q-12 -8 -12 -22q0 -13 8 -25l96 -131q7 -10 23 -10q13 0 35 16l78 64q31 24 57 24h276zM901 1108q0 46 -31.5 71t-66.5 25q-57 0 -83 -37t-26 -75q0 -67 58 -129q7 -11 16 -11q12 0 20 6q27 17 40 26.5t33.5 29t30 43t9.5 51.5zM672 604q-97 -40 -144 -89 t-47 -138q0 -55 38.5 -93t94.5 -38q74 0 125.5 27.5t104.5 93.5z" />
<glyph unicode="'" horiz-adv-x="557" d="M604 1421q31 0 25 -30l-105 -390q-9 -30 -35 -30h-155q-30 0 -27 30l47 390q6 30 37 30h213z" />
<glyph unicode="(" horiz-adv-x="690" d="M653 1559h189q26 0 26 -27q0 -11 -12 -27q-146 -169 -230.5 -324.5t-124.5 -337t-40 -417.5q0 -386 147 -647q4 -8 4 -17q0 -34 -34 -34h-177q-15 0 -24 12q-84 133 -128 318.5t-44 365.5q0 326 104.5 617.5t317.5 504.5q13 13 26 13z" />
<glyph unicode=")" horiz-adv-x="679" d="M227 -272h-188q-27 0 -27 26q0 10 13 27q203 253 288.5 493.5t85.5 585.5q0 386 -147 647q-4 8 -4 17q0 35 35 35h176q14 0 24 -13q84 -133 128 -318.5t44 -365.5q0 -327 -101.5 -625.5t-299.5 -496.5q-12 -12 -27 -12z" />
<glyph unicode="*" horiz-adv-x="845" d="M879 1104l-125 -55q-15 -7 -15 -23q0 -8 6 -14l76 -97q10 -10 10 -28t-16 -31l-88 -68q-15 -10 -29 -10t-26 15l-88 122q-9 13 -19 13q-6 0 -13.5 -5t-8.5 -5l-119 -125q-19 -19 -33 -19t-31 17l-61 57q-12 7 -12 33q3 19 16 34l100 105l7 10q0 8 -13 14l-110 60 q-21 12 -21 37q0 6 8 18l56 88q12 23 39 23q12 0 16 -2l90 -45q2 -2 12 -2q14 0 17 16l16 145q6 41 47 41h103q32 0 32 -30v-11l-18 -149q0 -19 14 -19q2 0 19 7l100 47q16 4 23 4q19 0 28 -23l37 -92q2 -6 2 -14q0 -27 -28 -39z" />
<glyph unicode="+" horiz-adv-x="1275" d="M608 664l47 329q5 27 37 27h221q29 0 29 -31l-47 -321v-9q0 -24 27 -24h307q26 0 26 -21v-10l-24 -180q-6 -29 -37 -29h-307q-32 0 -35 -26l-45 -340q-6 -29 -37 -29h-221q-29 0 -29 33l43 329v11q0 22 -24 22h-308q-15 0 -20.5 7.5t-5.5 25.5l26 180q3 27 35 27h307 q14 0 24 8t11 21z" />
<glyph unicode="," horiz-adv-x="573" d="M145 141q0 71 51 121.5t123 50.5q71 0 122 -51t51 -121q0 -130 -52 -256q-35 -91 -88 -146.5t-114 -55.5q-21 0 -41 10q-54 27 -54 59q0 12 8 33.5t23 57t23 57.5q20 66 20 100q-72 50 -72 141z" />
<glyph unicode="-" horiz-adv-x="724" d="M688 610q27 0 27 -32l-29 -172q-6 -29 -37 -29h-459q-28 0 -28 33l31 172q6 28 34 28h461z" />
<glyph unicode="." horiz-adv-x="573" d="M143 141q0 72 51 123t123 51t123.5 -51t51.5 -123t-51.5 -123t-123.5 -51t-123 51t-51 123z" />
<glyph unicode="/" horiz-adv-x="745" d="M831 1421q37 0 37 -24q0 -7 -4 -19l-512 -1351q-12 -27 -30 -27h-216q-14 0 -23 8t-9 23l514 1368q6 22 30 22h213z" />
<glyph unicode="0" horiz-adv-x="1165" d="M1100 385q-10 -72 -28.5 -130t-55.5 -113.5t-89.5 -92.5t-133 -59.5t-183.5 -22.5q-209 0 -314.5 95t-105.5 247q0 33 7 80l88 631q64 438 483 438q208 0 318 -104.5t110 -257.5q0 -40 -6 -80zM575 1028l-90 -639q-4 -32 -4 -49q0 -59 38.5 -99t111.5 -40q83 0 127.5 49 t54.5 127l88 649q4 36 4 57q0 61 -35.5 101.5t-113.5 40.5q-49 0 -83.5 -16.5t-53.5 -48t-28.5 -61t-15.5 -71.5z" />
<glyph unicode="1" horiz-adv-x="901" d="M643 252q0 -12 7.5 -20.5t17.5 -8.5h166q26 0 26 -24l-24 -166q-3 -33 -37 -33h-668q-29 0 -29 25l23 165q7 33 37 33h157q30 0 33 27l133 938q0 27 -26 31h-191q-26 0 -26 26l20 146q2 12 11.5 22t21.5 10h481q25 0 25 -26z" />
<glyph unicode="2" horiz-adv-x="1095" d="M553 260q0 -22 22 -22h449q18 0 18 -23l-26 -192q-3 -23 -25 -23h-866q-23 0 -23 23l29 204q3 23 19 39l618 600q58 58 68 131l4 29q0 1 3 27.5t3 40.5q0 57 -34.5 94t-106.5 37q-142 0 -168 -181q-3 -26 -35 -26h-228q-26 0 -26 31q21 189 140.5 299t324.5 110 q191 0 307.5 -87t116.5 -243q0 -28 -7 -79l-6 -50q-11 -86 -40.5 -155t-63.5 -112t-88 -95l-371 -363q-2 -2 -8 -14z" />
<glyph unicode="3" horiz-adv-x="1173" d="M1188 1028l-4 -37q-12 -83 -41 -139t-107 -117q-12 -9 -12 -28q0 -9 8 -17q51 -37 77 -98t26 -133q0 -35 -5 -64l-8 -61q-25 -184 -142 -275.5t-337 -91.5q-203 0 -320.5 85.5t-117.5 242.5q0 39 6 82q6 31 35 31h219q29 0 29 -27q-2 -14 -2 -41q0 -58 42 -98.5 t119 -40.5q50 0 84 13.5t52.5 41t27 54t14.5 67.5l5 33q2 10 2 32q0 81 -51 119.5t-140 38.5h-33q-43 0 -43 35l25 172q4 35 35 35h76q86 0 137.5 35t62.5 118l2 17q2 18 2 53q0 30 -7.5 56.5t-24 51t-49.5 38.5t-78 14q-83 0 -129.5 -54.5t-57.5 -128.5q-3 -26 -35 -26 h-227q-27 0 -27 31q27 189 152.5 300t331.5 111q190 0 312 -97t122 -255q0 -38 -6 -78z" />
<glyph unicode="4" d="M758 889q0 22 -29 22q-12 0 -22 -10l-234 -303q-10 -12 -10 -29q0 -22 26 -22h185q12 0 22 7t11 19zM885 0h-230q-24 0 -24 25l39 288q0 11 -9 18t-20 7h-448q-29 0 -29 24l18 158q3 25 11 33l632 823q10 13 29 13h231q25 0 25 -27l-115 -791q0 -24 31 -24h160 q16 0 23.5 -7t7.5 -26l-21 -143q-3 -33 -41 -33h-162q-15 0 -22 -5t-10 -24l-41 -276q-3 -33 -35 -33z" />
<glyph unicode="5" horiz-adv-x="1122" d="M1071 338q-27 -193 -151 -282t-351 -89q-200 0 -317 90.5t-117 243.5q0 35 6 76q3 31 35 31h221q27 0 27 -27q-2 -12 -2 -41q0 -59 40.5 -100t121.5 -41q175 0 198 180l9 72q2 8 2 26q0 42 -12.5 73t-32.5 49t-50.5 28.5t-60 14t-68.5 3.5h-297q-26 0 -26 25v8l100 715 q3 30 35 30h743q27 0 27 -30l-27 -174q-3 -33 -34 -33h-455q-32 0 -35 -31l-35 -250v-8q0 -20 27 -20h102q180 0 288 -102t108 -259q0 -36 -5 -65z" />
<glyph unicode="6" horiz-adv-x="1153" d="M285 1049q58 409 485 409q199 0 311.5 -90t112.5 -244q0 -34 -6 -75q-3 -31 -35 -31h-227q-27 0 -27 26q2 16 2 48q0 59 -33.5 96t-107.5 37q-164 0 -187 -176l-20 -144q0 -20 22 -20q9 0 62 13t94 13q185 0 285 -92.5t100 -251.5q0 -33 -6 -73l-20 -154 q-22 -164 -142 -268.5t-332 -104.5q-199 0 -313.5 99.5t-114.5 265.5q0 29 7 80zM678 678q-158 0 -178 -158l-19 -139q-2 -12 -2 -37q0 -67 38.5 -105t109.5 -38q82 0 125 43t53 116l20 166q0 3 1 10.5t1 10.5q0 56 -40.5 93.5t-108.5 37.5z" />
<glyph unicode="7" horiz-adv-x="1024" d="M477 2h-229q-23 0 -23 18q0 9 8 25l527 1094q8 16 8 28q0 23 -27 23h-469q-28 0 -28 24l22 177q1 15 11.5 23.5t25.5 8.5h780q23 0 23 -24l-29 -187l-569 -1192q-3 -7 -12.5 -12.5t-18.5 -5.5z" />
<glyph unicode="8" horiz-adv-x="1153" d="M629 199q160 0 182 178l10 78q2 8 2 26q0 60 -40.5 97.5t-104.5 37.5q-79 0 -126 -42t-56 -113l-13 -60q-2 -16 -2 -45q0 -79 41 -118t107 -39zM715 840q78 0 118 38.5t48 100.5l10 82q2 8 2 29q0 60 -33 97.5t-100 37.5q-77 0 -116 -44.5t-48 -107.5l-12 -78 q-2 -16 -2 -28q0 -52 33 -89.5t100 -37.5zM315 1079q25 179 142 279t317 100q191 0 300.5 -90t109.5 -242q0 -44 -4 -67l-15 -94q-19 -120 -88 -220q-12 -15 -12 -32q0 -11 6 -23q45 -77 45 -166q0 -52 -6 -86l-8 -53q-13 -95 -44.5 -168.5t-87.5 -131.5t-147.5 -89 t-214.5 -31q-199 0 -308.5 103.5t-109.5 261.5q0 29 7 80l10 65q9 62 36.5 113.5t75.5 105.5q17 17 17 35q0 9 -4 21q-37 70 -37 153q0 41 4 64z" />
<glyph unicode="9" horiz-adv-x="1148" d="M1073 377q-58 -410 -485 -410q-199 0 -311.5 90t-112.5 244q0 35 6 76q3 31 35 31h227q27 0 27 -27q-4 -32 -4 -47q0 -58 34.5 -95.5t108.5 -37.5q51 0 86.5 14t55.5 40.5t29.5 54.5t14.5 67l21 143q0 21 -23 21q-9 0 -61.5 -13.5t-93.5 -13.5q-185 0 -285 92.5 t-100 251.5q0 34 6 74l20 153q10 79 44 145t90.5 118t143.5 81t195 29q199 0 313.5 -99t114.5 -265q0 -36 -6 -80zM680 748q158 0 178 157l19 139q2 12 2 37q0 67 -38.5 105.5t-109.5 38.5q-82 0 -125 -43.5t-53 -116.5l-21 -166q0 -3 -1 -10t-1 -10q0 -56 40.5 -93.5 t109.5 -37.5z" />
<glyph unicode=":" horiz-adv-x="593" d="M143 139q0 72 51 123t123 51t123.5 -51t51.5 -123t-51.5 -123t-123.5 -51t-123 51t-51 123zM246 881q0 72 51 123t123 51t123 -51t51 -123t-51 -123t-123 -51t-123 51t-51 123z" />
<glyph unicode=";" horiz-adv-x="593" d="M246 879q0 72 51 124t123 52t123 -52t51 -124q0 -71 -51 -122.5t-123 -51.5t-123 51.5t-51 122.5zM123 141q0 71 51 121.5t123 50.5q71 0 121.5 -50.5t50.5 -121.5q0 -132 -51 -256q-35 -90 -88.5 -146t-114.5 -56q-21 0 -41 10q-53 27 -53 59q0 12 7.5 33.5t22.5 57 t23 57.5q21 69 21 100q-72 50 -72 141z" />
<glyph unicode="&#x3c;" horiz-adv-x="1198" d="M1157 1100q11 0 19.5 -8.5t7.5 -20.5q-30 -213 -37 -250q-3 -14 -19 -22l-532 -260q-21 -10 -23 -25q-5 -20 13 -29l461 -258q15 -9 12 -26l-27 -209l-2 -4q-1 -11 -12.5 -19t-22.5 -8q-10 0 -14 2l-745 432q-16 12 -13 27l27 223l2 4q3 16 20 23q25 12 248 121 t426.5 208t210.5 99z" />
<glyph unicode="=" horiz-adv-x="1198" d="M313 831h807q27 0 27 -32l-23 -170q-6 -29 -34 -29h-807q-29 0 -29 33l22 170q6 28 37 28zM252 422h807q26 0 26 -33l-22 -170q-6 -29 -35 -29h-807q-28 0 -28 33l22 170q6 29 37 29z" />
<glyph unicode="&#x3e;" horiz-adv-x="1198" d="M362 1100q6 0 181.5 -102.5t366 -214.5t212.5 -124q16 -9 13 -26l-29 -219v-2q-5 -14 -23 -25q-860 -426 -880 -426q-14 0 -22 9t-7 22l37 252v2q3 16 20 24l529 252q15 8 18 23q6 20 -14 30l-453 250q-17 10 -14 27l31 219v2q3 11 13.5 19t20.5 8z" />
<glyph unicode="?" horiz-adv-x="1112" d="M733 487h-211q-28 0 -28 23v8q0 73 16 131.5t46 99.5t60.5 68.5t71.5 52.5t62.5 40t49 40.5t40 55t12.5 65.5q0 75 -42 114.5t-110 39.5q-40 0 -70 -13t-45.5 -33.5t-22.5 -40.5t-7 -40v-11q0 -38 -33 -38h-231q-32 0 -35 26q-2 16 -2 45q0 151 120 244.5t322 93.5 q223 0 340 -97.5t117 -264.5q0 -89 -24 -159t-56 -109.5t-80 -77.5q-22 -17 -57.5 -40.5t-60 -40.5t-50 -40t-40 -50.5t-17.5 -60.5q-3 -31 -35 -31zM440 147q0 75 53 128t128 53t127.5 -53t52.5 -128t-52.5 -127.5t-127.5 -52.5t-128 52.5t-53 127.5z" />
<glyph unicode="@" horiz-adv-x="2353" d="M1090 -33q-142 0 -241 87t-99 229l43 362q11 85 43 156.5t88.5 129.5t146 91t203.5 33q60 0 122 -18t99 -46q18 -14 35 -14q20 0 20 14q0 25 27 25h152q9 0 15.5 -7.5t6.5 -19.5l-104 -739q0 -31 30 -31h66q319 0 319 449q0 146 -63 269.5t-168.5 205t-241.5 127 t-284 45.5q-156 0 -292.5 -47t-238.5 -131t-175 -198t-110.5 -251t-37.5 -287q0 -212 93.5 -370.5t255 -240t369.5 -81.5q198 0 338 45q4 2 15 2q17 0 24 -12q10 -19 31.5 -86.5t21.5 -83.5t-22 -29q-122 -71 -457 -71q-202 0 -375.5 67t-297 187t-193.5 293.5t-70 379.5 q0 189 50 361t148.5 313.5t235 245.5t318 161.5t389.5 57.5q213 0 399 -62.5t320.5 -175t211.5 -276.5t77 -358q0 -316 -164 -492t-477 -176h-262q-11 0 -20 8.5t-9 18.5q0 24 -21 24q-16 0 -35.5 -13t-41 -29t-77.5 -29t-136 -13zM1372 377l35 246q2 10 2 32 q0 59 -36.5 100.5t-110.5 41.5q-80 0 -124.5 -47t-54.5 -119l-36 -246q-3 -12 -3 -25q0 -58 39 -98.5t113 -40.5q80 0 124 45t52 111z" />
<glyph unicode="A" horiz-adv-x="1064" d="M651 784q-24 0 -33 -20l-94 -264q-4 -12 -4 -23q0 -22 25 -22h108q35 0 35 41l-10 262q0 10 -8 18t-19 8zM336 0h-250q-25 0 -25 20q0 12 132.5 358t265.5 686l133 341q8 18 31 18h235q20 0 23 -18l123 -1380q0 -25 -25 -25h-238q-9 0 -15.5 7t-6.5 16l-17 180 q-3 18 -24 18h-213q-25 0 -35 -24l-63 -181q-5 -16 -31 -16z" />
<glyph unicode="B" horiz-adv-x="1171" d="M651 604h-88q-28 0 -35 -33l-45 -313q0 -10 7 -17.5t18 -7.5h100q223 0 223 205q0 84 -47.5 125t-132.5 41zM641 1190q-25 0 -29 -29l-45 -301q0 -22 25 -22h57q104 0 158.5 43t54.5 139q0 170 -184 170h-37zM999 694q121 -110 121 -260q0 -106 -28 -185.5t-72 -126 t-109 -75t-128 -38t-140 -9.5h-450q-13 0 -21 8.5t-8 20.5l192 1364q6 30 39 30h336q187 0 303.5 -100t116.5 -268q0 -209 -147 -314q-13 -10 -13 -24q0 -15 8 -23z" />
<glyph unicode="C" horiz-adv-x="1212" d="M1120 352q-29 -202 -141.5 -294.5t-323.5 -92.5q-122 0 -215 31.5t-147 85.5t-80.5 120.5t-26.5 143.5q0 30 7 74l92 604q14 91 45.5 164.5t87.5 136.5t146.5 98t209.5 35q195 0 327 -90t132 -233q0 -40 -4 -60q-5 -26 -35 -26h-225q-25 0 -25 20q0 64 -45.5 110 t-124.5 46q-91 0 -137.5 -56t-58.5 -143l-95 -631q-4 -28 -4 -43q0 -66 44.5 -109.5t125.5 -43.5q83 0 127.5 36.5t59.5 112.5q6 27 30 27h226q28 0 28 -23z" />
<glyph unicode="D" horiz-adv-x="1228" d="M483 266q0 -33 27 -33h168q78 0 127 42.5t61 123.5l88 627q2 12 2 35q0 61 -34 95t-97 34h-180q-32 0 -35 -33zM193 0q-29 0 -29 25v8l192 1360q6 30 39 30h467q108 0 185.5 -25t120 -70.5t62 -100.5t19.5 -123q0 -38 -6 -82l-90 -623q-14 -101 -43.5 -172t-82 -123.5 t-134 -78t-195.5 -25.5h-505z" />
<glyph unicode="E" horiz-adv-x="985" d="M1020 1423q27 0 27 -20l-25 -180q-6 -33 -39 -33h-338q-32 0 -35 -31l-43 -311q0 -11 8 -17t17 -6h309q27 0 27 -26l-27 -176q-3 -31 -35 -31h-305q-32 0 -35 -31l-43 -301q0 -24 27 -24h358q29 0 29 -31l-25 -172q-3 -18 -11 -25.5t-25 -7.5h-643q-29 0 -29 25v8 l192 1360q6 30 39 30h625z" />
<glyph unicode="F" horiz-adv-x="964" d="M1020 1423q27 0 27 -24l-25 -176q-1 -15 -11.5 -24t-25.5 -9h-340q-32 0 -35 -31l-43 -303q0 -31 29 -31h297q20 0 27.5 -6t7.5 -24l-27 -172q-5 -31 -37 -31h-303q-31 0 -35 -31l-73 -528q-1 -15 -11.5 -24t-25.5 -9h-223q-29 0 -29 33l192 1360q3 30 37 30h627z" />
<glyph unicode="G" d="M1221 1075q-3 -26 -35 -26h-225q-25 0 -25 26q0 65 -47 107.5t-129 42.5q-166 0 -193 -197l-88 -635q-2 -12 -2 -39q0 -65 45.5 -109t132.5 -44q95 0 137.5 49.5t55.5 144.5l22 160v8q0 29 -34 29h-144q-35 0 -35 31v10l23 160q1 15 11.5 23.5t25.5 8.5h444q29 0 29 -32 l-62 -426q-28 -200 -144.5 -300t-338.5 -100t-341.5 94.5t-119.5 255.5q0 37 6 74l86 633q12 90 45 164.5t92 137t154.5 97.5t220.5 35q193 0 315 -91t122 -239q0 -17 -4 -53z" />
<glyph unicode="H" horiz-adv-x="1224" d="M451 33q-7 -33 -35 -33h-223q-13 0 -21 9t-8 22l192 1362q6 30 39 30h223q12 0 18.5 -7.5t6.5 -18.5l-76 -547q0 -25 27 -25h272q32 0 35 31l78 537q6 30 37 30h223q27 0 27 -26l-193 -1364q-3 -33 -37 -33h-221q-13 0 -21 9t-8 22l76 534q0 27 -26 27h-275 q-29 0 -35 -31z" />
<glyph unicode="I" horiz-adv-x="600" d="M449 33q-7 -33 -35 -33h-221q-13 0 -21 9t-8 22l192 1362q6 30 39 30h221q12 0 18.5 -7.5t6.5 -18.5z" />
<glyph unicode="J" horiz-adv-x="1097" d="M881 1423h223q12 0 20.5 -8t8.5 -20l-158 -1110q-23 -166 -125 -243t-291 -77q-192 0 -300.5 94t-108.5 277q0 23 6 32t28 9h226q17 0 21.5 -5.5t4.5 -17.5v-30q0 -58 35.5 -91.5t91.5 -33.5q66 0 94 32.5t35 87.5l154 1074q3 30 35 30z" />
<glyph unicode="K" horiz-adv-x="1163" d="M1221 1423q24 0 24 -24q0 -11 -8 -23l-358 -528q-7 -9 -7 -21q0 -6 2 -16l201 -778q0 -15 -9.5 -24t-23.5 -9h-233q-22 0 -27 23l-133 534q-3 12 -18 12q-12 0 -19 -10l-86 -123q-17 -21 -20 -43l-51 -360q-3 -33 -35 -33h-227q-29 0 -29 33l192 1360q6 30 39 30h221 q17 0 22 -7.5t5 -22.5l-61 -453q0 -12 14 -12q13 0 20 12l318 473q8 10 22 10h265z" />
<glyph unicode="L" horiz-adv-x="978" d="M897 207l-25 -174q-2 -15 -11.5 -24t-24.5 -9h-646q-11 0 -18.5 8.5t-7.5 20.5l192 1364q3 30 37 30h219q31 0 31 -32l-160 -1131q0 -24 27 -24h358q12 0 20.5 -7.5t8.5 -21.5z" />
<glyph unicode="M" horiz-adv-x="1331" d="M1372 1393l-188 -1360q-6 -33 -37 -33h-227q-27 0 -27 33l88 549q0 24 -27 24q-22 0 -28 -16l-86 -199q-9 -22 -33 -22h-166q-17 0 -20 18l-23 213q-3 16 -25 16q-31 0 -34 -30l-84 -553q-6 -33 -37 -33h-228q-26 0 -26 33l192 1360q3 30 33 30h221q21 0 27 -20l123 -623 q4 -20 24 -20q21 0 29 16l281 627q9 20 30 20h222q14 0 20 -6.5t6 -23.5z" />
<glyph unicode="N" horiz-adv-x="1222" d="M827 20l-223 637q-6 17 -24 17q-32 0 -35 -31l-90 -610q-6 -33 -35 -33h-230q-26 0 -26 31l194 1362q6 30 37 30h207q19 0 25 -20l217 -598q4 -19 24 -19q31 0 37 31l80 576q6 30 37 30h211q31 0 31 -28l-185 -1364q-6 -31 -37 -31h-188q-21 0 -27 20z" />
<glyph unicode="O" d="M1133 365q-10 -71 -31 -128t-60 -108.5t-94.5 -86.5t-137 -55t-185.5 -20q-225 0 -333 96t-108 252q0 37 6 74l95 631q10 71 32 132.5t61.5 118.5t93.5 97.5t133.5 65t176.5 24.5q215 0 335 -98.5t120 -249.5q0 -36 -6 -74zM573 1028l-92 -631q-4 -28 -4 -41 q0 -65 42.5 -110t127.5 -45q171 0 197 176l96 655q4 28 4 41q0 64 -42.5 108t-127.5 44q-49 0 -86.5 -17t-60.5 -46.5t-35.5 -62.5t-18.5 -71z" />
<glyph unicode="P" horiz-adv-x="1146" d="M700 1190h-51q-32 0 -39 -33l-53 -383q0 -12 8.5 -22.5t26.5 -10.5h78q110 0 173.5 56t63.5 176q0 217 -207 217zM555 508q-14 0 -26 -9t-15 -28l-63 -438q-6 -33 -35 -33h-223q-13 0 -21 8.5t-8 20.5l192 1364q6 30 39 30h328q199 0 327 -110t128 -305 q0 -267 -131 -383.5t-398 -116.5h-94z" />
<glyph unicode="Q" d="M1133 365q-20 -146 -91 -238l144 -176q12 -12 12 -31q0 -15 -8 -20l-154 -123q-4 -2 -12 -2q-24 0 -37 16l-162 199q-85 -23 -200 -23q-225 0 -333 96t-108 252q0 37 6 74l95 631q10 71 32 132.5t61.5 118.5t93.5 97.5t133.5 65t176.5 24.5q215 0 335 -98.5t120 -249.5 q0 -36 -6 -74zM573 1028l-92 -631q-4 -28 -4 -41q0 -65 42.5 -110t127.5 -45q171 0 197 176l96 655q4 28 4 41q0 64 -42.5 108t-127.5 44q-49 0 -86.5 -17t-60.5 -46.5t-35.5 -62.5t-18.5 -71z" />
<glyph unicode="R" horiz-adv-x="1183" d="M1083 31q0 -31 -34 -31h-226q-8 0 -16.5 7.5t-11.5 17.5l-74 454q-7 33 -41 33h-125q-35 -2 -41 -37l-61 -442q-10 -33 -37 -33h-223q-12 0 -20.5 6.5t-8.5 16.5t2 14l190 1356q9 30 39 30h348q218 0 339.5 -112.5t121.5 -300.5q0 -145 -42 -242.5t-154 -183.5 q-17 -11 -17 -33q0 -8 2 -16l88 -484q2 -10 2 -20zM717 1190h-70q-34 0 -37 -33l-53 -383q0 -29 31 -29h106q95 0 158 60t63 178q0 58 -18.5 101t-49 64.5t-63 31.5t-67.5 10z" />
<glyph unicode="S" horiz-adv-x="1103" d="M571 -33q-199 0 -323.5 89.5t-124.5 246.5q0 31 2 45q3 27 33 27h229q27 0 27 -31q4 -71 51.5 -108t116.5 -37q39 0 68 6t56.5 21.5t42.5 48.5t15 81q0 62 -43 105l-313 248q-164 129 -164 323q0 202 113.5 314t355.5 112q201 0 316.5 -93t115.5 -245q0 -29 -2 -45 q-3 -26 -35 -26h-219q-33 0 -33 38v11q0 44 -39 85.5t-115 41.5t-126 -40t-50 -116t76 -135l316 -248q141 -114 141 -309q0 -211 -127.5 -310.5t-360.5 -99.5z" />
<glyph unicode="T" horiz-adv-x="1093" d="M662 0h-228q-12 0 -19 8.5t-7 22.5l161 1132q0 12 -8 19.5t-20 7.5h-248q-27 0 -27 24l25 179q6 30 35 30h841q12 0 20.5 -7.5t8.5 -20.5l-20 -172q-7 -33 -37 -33h-248q-32 0 -35 -31l-158 -1126q-3 -33 -36 -33z" />
<glyph unicode="U" horiz-adv-x="1224" d="M1266 1393l-148 -1039q-27 -190 -148 -289.5t-335 -99.5q-215 0 -321.5 101.5t-106.5 265.5q0 33 6 71l143 990q3 30 37 30h221q15 0 22 -6.5t7 -23.5l-141 -1004q-2 -12 -2 -35q0 -63 39.5 -109t117.5 -46q47 0 81 15.5t53.5 43.5t29.5 57t15 66l143 1012q3 30 37 30 h223q27 0 27 -30z" />
<glyph unicode="V" horiz-adv-x="1093" d="M653 0h-186q-10 0 -18.5 8t-10.5 19l-151 1364q0 32 39 32h219q31 0 35 -30l55 -605q3 -26 37 -26q24 0 33 24l204 611q3 10 12 18t19 8h229q27 0 27 -24q0 -12 -128.5 -355t-257.5 -680l-128 -337q-9 -27 -29 -27z" />
<glyph unicode="W" horiz-adv-x="1632" d="M1225 0h-195q-9 0 -16.5 9t-7.5 18l-64 591q-3 27 -33 27q-26 0 -32 -22l-218 -603q-8 -20 -26 -20h-195q-18 0 -22 27l-133 1378q0 18 22 18h248q21 0 25 -28l32 -574q3 -33 37 -33q33 0 43 29l180 590q5 16 35 16h230q8 0 15 -6.5t7 -13.5l35 -567q1 -16 13 -25.5 t28 -9.5q31 0 41 33l180 573q5 16 25 16h233q9 0 16 -6.5t7 -15.5q0 -6 -121.5 -350t-243.5 -685l-121 -341q-8 -25 -24 -25z" />
<glyph unicode="X" horiz-adv-x="1026" d="M965 20q0 -20 -21 -20h-244q-8 0 -15.5 5.5t-8.5 12.5l-76 299q-6 23 -35 23q-31 0 -39 -18l-157 -299q-3 -7 -12.5 -15t-16.5 -8h-242q-7 0 -11.5 7.5t-4.5 15.5q0 12 2 16l362 694q7 14 7 25v16q-185 621 -185 625q0 24 27 24h258q19 0 25 -18l75 -254q7 -29 35 -29 q21 0 35 25l133 260q6 16 29 16h235q7 0 13 -7t6 -15l-348 -684q-7 -14 -7 -25q0 -10 2 -14q5 -21 50.5 -184.5t87 -314t41.5 -159.5z" />
<glyph unicode="Y" horiz-adv-x="1083" d="M657 0h-223q-26 0 -26 23v10l69 471v8l-2 31l-188 856q0 11 10 17.5t22 6.5h224q26 0 32 -24l84 -418q2 -9 9 -16t16 -7q14 0 27 21l198 428q8 16 33 16h219q25 0 25 -22q0 -15 -6 -27l-408 -831q-9 -17 -14 -62l-64 -448q-1 -15 -11.5 -24t-25.5 -9z" />
<glyph unicode="Z" horiz-adv-x="1005" d="M883 0h-756q-25 0 -25 25v8l25 176q0 8 8 20l539 916q8 12 8 20q0 25 -23 25h-362q-12 0 -19.5 9t-7.5 24l25 170q2 14 11 22t22 8h714q11 0 18 -7t7 -17l-25 -191q0 -8 -8 -20l-522 -903q-8 -12 -8 -23q0 -26 26 -26h369q14 0 23.5 -9t9.5 -22l-17 -172q-4 -33 -32 -33z " />
<glyph unicode="[" horiz-adv-x="786" d="M137 -227l291 1988q7 33 39 33h434q12 0 20.5 -9t8.5 -22l-23 -172q-3 -32 -39 -32h-166q-17 0 -25 -7.5t-11 -25.5l-228 -1520q0 -35 37 -35h148q22 0 29 -8.5t7 -25.5l-20 -164q-7 -33 -39 -33h-434q-12 0 -20.5 9.5t-8.5 23.5z" />
<glyph unicode="\" horiz-adv-x="694" d="M283 1423h192q8 0 17 -8t12 -16l127 -1366q0 -1 1 -3t1 -3q0 -10 -12 -17.5t-25 -7.5h-195q-19 0 -26 25l-129 1364q0 32 37 32z" />
<glyph unicode="]" horiz-adv-x="753" d="M848 1757l-291 -1984q-7 -33 -39 -33h-434q-12 0 -20.5 9t-8.5 22l23 172q3 32 39 32h166q17 0 25 7.5t11 25.5l228 1516q0 35 -37 35h-148q-22 0 -29 8.5t-7 25.5l20 164q7 33 39 33h434q12 0 20.5 -9.5t8.5 -23.5z" />
<glyph unicode="^" horiz-adv-x="1110" d="M215 788l358 619q6 18 27 18h193q20 0 26 -18l311 -616q0 -14 -8.5 -22.5t-21.5 -8.5h-223q-22 0 -27 16l-137 254q-6 17 -27 17q-18 0 -27 -19l-143 -252q-8 -16 -27 -16h-245q-11 0 -20 9t-9 19z" />
<glyph unicode="_" horiz-adv-x="978" d="M870 -145q27 0 27 -33l-29 -172q-6 -29 -37 -29h-722q-29 0 -29 33l24 172q6 29 35 29h731z" />
<glyph unicode="`" horiz-adv-x="481" d="M244 1407q5 16 28 16h193q18 0 24 -14l109 -274q4 -12 4 -19q0 -14 -9 -22.5t-22 -8.5h-118q-16 0 -23 11l-180 276q-8 11 -8 23q0 8 2 12z" />
<glyph unicode="a" horiz-adv-x="1165" d="M532 -35q-168 0 -268 85t-100 231l43 364q11 86 40.5 156.5t82.5 129t139.5 91.5t200.5 33q62 0 132.5 -18.5t106.5 -45.5q18 -14 35 -14q21 0 21 14q0 25 26 25h152q9 0 15.5 -7.5t6.5 -19.5l-135 -958q-2 -13 -11 -22t-22 -9h-153q-11 0 -20 8.5t-9 18.5q0 24 -20 24 q-16 0 -37.5 -13.5t-43 -29.5t-70 -29.5t-112.5 -13.5zM786 377l35 246q2 10 2 32q0 59 -36.5 100.5t-110.5 41.5q-80 0 -124 -47t-54 -119l-35 -242q-2 -8 -2 -24q0 -150 149 -150q155 0 176 162z" />
<glyph unicode="b" horiz-adv-x="1165" d="M393 1559h223q16 0 23.5 -11t7.5 -24l-72 -484q0 -22 19 -22q4 0 12 4q74 33 152 33q189 0 283 -84.5t94 -239.5q0 -34 -7 -88l-41 -278q-14 -94 -44 -163.5t-85 -124t-142.5 -82.5t-207.5 -28q-190 0 -307 92t-117 252q0 35 6 76l162 1139q7 33 41 33zM520 639l-37 -238 q-2 -10 -2 -32q0 -59 37 -102.5t111 -43.5q83 0 125 39.5t53 116.5l37 258q2 8 2 25q0 59 -36.5 99t-109.5 40q-83 0 -127 -47t-53 -115z" />
<glyph unicode="c" horiz-adv-x="1124" d="M1069 350v-8q-10 -62 -28 -112.5t-54.5 -101t-89 -84.5t-136 -55.5t-190.5 -21.5q-185 0 -296 91t-111 241q0 37 6 78l37 266q26 190 144.5 301t332.5 111q193 0 306.5 -100t113.5 -242q0 -25 -4 -39q-9 -29 -37 -29h-221q-14 0 -22.5 8t-8.5 21q-2 55 -39.5 89 t-101.5 34q-73 0 -115.5 -43t-52.5 -107l-39 -256q-2 -10 -2 -31q0 -57 38.5 -96t106.5 -39q67 0 106 27t52 90q6 29 37 29h241q27 0 27 -21z" />
<glyph unicode="d" horiz-adv-x="1169" d="M995 1559h224q13 0 20.5 -11t7.5 -24l-217 -1491q-1 -15 -11.5 -24t-25.5 -9h-145q-27 0 -27 25q0 26 -20 26q-13 0 -23 -10q-82 -74 -227 -74q-179 0 -283 90t-104 240q0 31 6 68l41 288q59 402 477 402q34 0 82.5 -8.5t75.5 -22.5q8 -4 14 -4q22 0 27 27l71 479 q7 33 37 33zM791 389l34 248q2 10 2 31q0 52 -43 91.5t-102 39.5q-49 0 -84 -13.5t-54.5 -39t-29 -51.5t-14.5 -60l-37 -238q-2 -10 -2 -30q0 -57 37.5 -99.5t111.5 -42.5q49 0 84 13.5t54 39t28.5 51.5t14.5 60z" />
<glyph unicode="e" horiz-adv-x="1126" d="M594 201q110 0 147 67q13 27 52 27h219q26 0 26 -25q-25 -90 -68.5 -151.5t-105.5 -93.5t-131 -45t-160 -13q-197 0 -303 89t-106 239q0 49 8 90l35 260q25 183 146 296.5t339 113.5q113 0 206 -39t150.5 -118.5t57.5 -186.5q0 -39 -6 -82l-15 -99q-8 -51 -46 -84.5 t-89 -33.5h-428q-25 0 -42 -15.5t-21 -44.5l-4 -39q0 -48 35.5 -80t103.5 -32zM506 653v-16q0 -21 11.5 -33t29.5 -12h209q31 0 43.5 12.5t17.5 42.5q2 10 2 25q0 58 -36.5 96.5t-104.5 38.5q-75 0 -118.5 -44t-53.5 -110z" />
<glyph unicode="f" horiz-adv-x="761" d="M641 1016h143q33 0 33 -35l-22 -158q-3 -30 -37 -30h-156q-13 0 -22 -9t-11 -22l-178 -1213q-8 -41 -47 -41h-205q-19 0 -28 12t-9 29l172 1209q0 14 -9 24.5t-17 10.5h-111q-31 0 -31 30l21 160q7 33 39 33h115q14 0 23 10t11 23l31 196q27 177 133 279t283 102 q80 0 127 -39q16 -13 16 -37l-33 -161q-7 -31 -32 -31q-6 0 -24.5 3t-35.5 3q-68 0 -104 -46t-43 -106l-25 -165q0 -31 33 -31z" />
<glyph unicode="g" horiz-adv-x="1048" d="M596 1055q113 0 250 -60q55 -24 119 -24q43 0 82.5 16.5t64 33.5t29.5 17q14 0 22 -14q6 -11 27.5 -80.5t21.5 -79.5q0 -24 -24 -44.5t-49 -31t-65 -24t-48 -16.5q-35 -14 -35 -46q0 -6 1 -19t1 -21q0 -186 -106 -289t-279 -103h-100q-32 0 -54 -17t-22 -48 q0 -41 26.5 -53.5t73.5 -12.5q72 0 130 -7.5t112.5 -27.5t91 -53t58.5 -87t22 -126q0 -68 -15.5 -123t-41 -92t-63.5 -65t-77.5 -43.5t-88.5 -25t-90.5 -12.5t-90.5 -3q-93 0 -171.5 19.5t-142 59.5t-99 109t-35.5 160q0 33 37 33h215q34 0 43 -31q10 -37 56 -57.5 t112 -20.5q23 0 35.5 0.5t34 2.5t33.5 6.5t25 12.5t19 22t6 32q0 20 -7 34.5t-21 23t-27.5 14t-35 7.5t-34 2.5t-33.5 0.5q-143 0 -231 68.5t-88 203.5v17q0 43 14 81.5t31 59t31 38.5t14 25q0 19 -8 27q-70 94 -70 248q0 181 115.5 282t298.5 101zM596 811q-68 0 -109 -41 t-41 -106q0 -61 39.5 -103.5t106.5 -42.5q70 0 110.5 39.5t40.5 106.5q0 63 -39.5 105t-107.5 42z" />
<glyph unicode="h" horiz-adv-x="1165" d="M688 799q-72 0 -114 -41.5t-50 -102.5l-92 -622q-1 -15 -11.5 -24t-25.5 -9h-221q-31 0 -31 33l213 1495q3 31 37 31h230q26 0 26 -27v-8l-71 -496q4 -20 20 -20q3 0 33 12q78 35 151 35q162 0 252 -82.5t90 -231.5q0 -33 -6 -73l-94 -635q-1 -15 -11.5 -24t-25.5 -9 h-223q-12 0 -20.5 9t-8.5 24l86 608q2 8 2 23q0 55 -34.5 95t-100.5 40z" />
<glyph unicode="i" horiz-adv-x="569" d="M395 0h-223q-12 0 -20.5 9t-8.5 22l136 954q3 31 34 31h228q12 0 23 -10t11 -23l-143 -950q-6 -33 -37 -33zM293 1337q0 71 49 120.5t121 49.5q71 0 120.5 -49.5t49.5 -120.5q0 -72 -49.5 -121t-120.5 -49q-72 0 -121 49t-49 121z" />
<glyph unicode="j" horiz-adv-x="565" d="M-121 -492q-29 0 -29 31l25 160q3 33 39 33q106 0 155 67.5t68 196.5l142 987q3 18 11 25.5t25 7.5h226q14 0 24 -10t10 -23l-157 -1032q-36 -242 -160.5 -342.5t-378.5 -100.5zM291 1337q0 71 49 120.5t121 49.5q71 0 120.5 -49.5t49.5 -120.5q0 -72 -49.5 -121 t-120.5 -49q-72 0 -121 49t-49 121z" />
<glyph unicode="k" horiz-adv-x="1099" d="M805 539q0 -12 8 -31l203 -469q2 -4 2 -12q0 -11 -6.5 -19t-16.5 -8h-250q-28 0 -40 29l-117 268q-9 25 -37 25q-25 0 -37 -15l-49 -57l-33 -217q-4 -33 -37 -33h-225q-27 0 -27 31l213 1495q2 14 12 23.5t23 9.5h230q12 0 20 -11.5t8 -25.5l-108 -750q0 -37 39 -37 q22 0 34 15l193 245q17 21 49 21h256q12 0 20.5 -8.5t8.5 -20.5q0 -14 -17 -31l-311 -387q-8 -11 -8 -30z" />
<glyph unicode="l" horiz-adv-x="569" d="M395 0h-223q-29 0 -29 25v8l213 1495q3 31 37 31h221q16 0 24.5 -10t8.5 -21l-215 -1495q-6 -33 -37 -33z" />
<glyph unicode="m" horiz-adv-x="1746" d="M1270 797q-71 0 -110 -43t-48 -105l-92 -618q-3 -31 -37 -31h-223q-11 0 -20 9t-9 22l86 612q2 8 2 27q0 50 -35 88.5t-98 38.5q-71 0 -112.5 -42t-49.5 -102l-92 -620q-7 -33 -39 -33h-223q-13 0 -20 9t-7 22l136 954q3 31 36 31h148q31 0 31 -27v-8q0 -18 18 -18 q15 0 39 18q40 28 102.5 51t118.5 23q135 0 215 -62q23 -14 31 -14q25 0 41 10q61 37 134 51.5t126 14.5q181 0 284 -92.5t103 -233.5q0 -35 -6 -76l-92 -620q-7 -33 -39 -33h-223q-11 0 -19 9t-8 24l84 604q2 10 2 35q0 51 -34 88t-101 37z" />
<glyph unicode="n" horiz-adv-x="1161" d="M688 797q-75 0 -114.5 -41t-49.5 -105l-92 -618q-7 -33 -37 -33h-221q-13 0 -22 10t-9 23l136 952q3 31 36 31h148q31 0 31 -27v-8q0 -18 18 -18q14 0 33 14q51 35 117.5 56.5t123.5 21.5q149 0 241.5 -80t92.5 -221q0 -38 -6 -78l-94 -643q-7 -33 -39 -33h-223 q-12 0 -19.5 9t-7.5 24l84 606q2 10 2 33q0 50 -33.5 87.5t-95.5 37.5z" />
<glyph unicode="o" horiz-adv-x="1136" d="M1100 621l-35 -246q-31 -221 -151 -315.5t-334 -94.5q-193 0 -304.5 86.5t-111.5 245.5q0 37 6 80l37 266q12 87 44.5 159t88 130t144 90.5t202.5 32.5q196 0 308 -100.5t112 -254.5q0 -36 -6 -79zM500 633l-39 -244q-2 -10 -2 -31q0 -56 35 -95.5t104 -39.5 q152 0 176 162l35 250q2 10 2 31q0 55 -36 93t-105 38q-145 0 -170 -164z" />
<glyph unicode="p" horiz-adv-x="1169" d="M324 -492h-220q-13 0 -22.5 9.5t-9.5 27.5l207 1438q2 15 11.5 24t24.5 9h154q27 0 27 -25v-8q0 -18 20 -18q13 0 23 8q119 82 243 82q176 0 266.5 -87.5t90.5 -242.5q0 -45 -4 -68l-39 -278q-14 -101 -42 -173t-79 -128.5t-133.5 -84.5t-198.5 -28q-36 0 -67.5 7.5 t-61.5 19t-43 14.5q-4 2 -16 2q-25 0 -29 -26l-66 -441q-7 -33 -36 -33zM524 633l-39 -248q-2 -10 -2 -29q0 -56 36 -95.5t106 -39.5q157 0 184 166l39 244q2 8 2 26q0 58 -36 99t-107 41q-82 0 -128.5 -48.5t-54.5 -115.5z" />
<glyph unicode="q" horiz-adv-x="1161" d="M905 -492h-209q-34 0 -34 35l65 439q0 22 -18 22q-5 0 -13 -4q-32 -14 -78 -23.5t-77 -9.5q-189 0 -283 84.5t-94 239.5q0 41 6 88l41 278q59 398 479 398q117 0 212.5 -40t153.5 -119.5t58 -184.5q0 -35 -6 -76l-162 -1094q-7 -33 -41 -33zM780 383l37 250q2 10 2 33 q0 57 -37 95t-112 38q-155 0 -178 -164l-37 -250q-2 -8 -2 -25q0 -59 36 -99t109 -40q80 0 127 48t55 114z" />
<glyph unicode="r" horiz-adv-x="796" d="M393 0h-219q-12 0 -21.5 9t-9.5 24l136 952q3 31 36 31h148q31 0 31 -29v-20q0 -21 20 -21q12 0 21 6q121 103 296 103q27 0 27 -25l-37 -242q-6 -30 -37 -30q-130 0 -194 -46.5t-82 -168.5l-76 -510q-6 -33 -39 -33z" />
<glyph unicode="s" horiz-adv-x="1097" d="M578 -33q-217 0 -332 99.5t-115 248.5q0 56 41 56h207q44 0 47 -31q6 -70 56.5 -102.5t123.5 -32.5q62 0 94.5 18.5t32.5 63.5q0 39 -25.5 55.5t-84.5 30.5l-142 35q-42 11 -71 21t-66 26.5t-62 39t-47.5 53.5t-33.5 74t-11 97q0 112 58.5 189t153.5 112t219 35 q215 0 335.5 -91.5t120.5 -261.5q0 -51 -41 -51h-221q-31 0 -31 31q0 54 -38 94.5t-113 40.5q-66 0 -103.5 -22.5t-37.5 -63.5q0 -38 27.5 -56t84.5 -30l68 -14q38 -8 56 -12t55.5 -14.5t57.5 -18.5t52 -23.5t50 -31.5t40 -39.5t33.5 -50.5t19.5 -62t8 -76q0 -64 -16 -115.5 t-41.5 -86t-65 -60t-78 -39.5t-88.5 -22t-89.5 -10.5t-87.5 -2.5z" />
<glyph unicode="t" horiz-adv-x="835" d="M293 758q0 35 -35 35h-100q-35 0 -35 26l22 164q7 33 37 33h117q15 0 24 8.5t11 22.5l35 225q3 30 37 33h231q11 0 19 -9t8 -24l-33 -215q0 -41 41 -41h170q35 0 35 -29q0 -2 -1.5 -6t-1.5 -6l-22 -152q-6 -30 -35 -30h-190q-34 0 -41 -35l-47 -336q-2 -6 -2 -21 q0 -77 44.5 -126.5t133.5 -49.5q28 0 28 -32l-26 -191q-7 -35 -39 -35q-86 0 -161 17t-141 54.5t-104.5 105.5t-38.5 161q0 29 9 90z" />
<glyph unicode="u" horiz-adv-x="1161" d="M616 225q75 0 114.5 41t49.5 105l92 612q7 33 37 33h226q26 0 26 -25v-8l-135 -952q-3 -31 -37 -31h-151q-27 0 -27 18v15q0 18 -18 18q-14 0 -33 -14q-92 -70 -225 -70q-170 0 -258.5 86.5t-88.5 235.5q0 31 7 78l90 616q7 33 39 33h223q26 0 26 -33l-84 -600 q-2 -10 -2 -33q0 -50 33.5 -87.5t95.5 -37.5z" />
<glyph unicode="v" horiz-adv-x="958" d="M780 1016h234q26 0 26 -23q0 -10 -6 -22l-432 -938q-16 -33 -51 -33h-174q-11 0 -23.5 9.5t-15.5 27.5l-174 934v14q0 14 10.5 22.5t24.5 8.5h225q22 0 25 -17l71 -407q3 -23 27 -23q23 0 31 19l174 411q8 17 28 17z" />
<glyph unicode="w" horiz-adv-x="1433" d="M768 438q-17 0 -23 -16l-165 -402q-9 -20 -31 -20h-189q-19 0 -27 7.5t-11 23.5l-158 958q0 27 35 27h225q24 0 27 -23l55 -397q3 -25 26 -25q11 0 20.5 7.5t12.5 17.5l127 399q8 21 41 21h223q24 0 27 -21l39 -385q3 -22 27 -22q23 0 32 22l142 383q5 13 10 18t16 5h240 q27 0 27 -19q0 -8 -99 -250.5t-198 -480.5l-99 -239q-12 -27 -35 -27h-192q-11 0 -20.5 8.5t-10.5 20.5l-71 393q-3 16 -23 16z" />
<glyph unicode="x" horiz-adv-x="1019" d="M770 508q0 -8 4 -16l207 -461q0 -13 -8.5 -22t-22.5 -9h-243q-15 0 -21 14l-104 236q-9 18 -29 18q-22 0 -33 -16l-149 -238q-8 -14 -27 -14h-262q-21 0 -21 20q0 10 7 21l335 491q9 18 9 27l-195 414q-4 12 -4 16q0 12 9.5 19.5t21.5 7.5h256q10 0 18 -15l82 -182 q9 -18 29 -18q23 0 33 16l118 184q9 15 27 15h254q20 0 20 -17q0 -13 -6 -22l-295 -447q-10 -20 -10 -22z" />
<glyph unicode="y" horiz-adv-x="980" d="M68 -492q-14 0 -20.5 6.5t-6.5 24.5l20 201q3 33 35 33q49 0 89 25.5t61 74.5l94 221q2 4 2 15q0 18 -2 26l-156 836q0 2 -1 5t-1 5q0 15 10 25t25 10h229q20 0 23 -15l74 -391q1 -8 9.5 -14t16.5 -6q25 0 31 18l174 393q5 15 29 15h233q10 0 18.5 -8t8.5 -19l-580 -1257 q-54 -113 -152 -168.5t-263 -55.5z" />
<glyph unicode="z" horiz-adv-x="972" d="M575 268q0 -12 7 -20t18 -8h283q28 0 28 -31l-16 -176q-3 -33 -37 -33h-729q-27 0 -27 25v8l23 162q4 16 8 22l395 496q11 15 11 26t-7.5 20t-19.5 9h-262q-29 0 -29 25l29 192q3 31 37 31h688q29 0 29 -31l-43 -190q-5 -17 -21 -37l-358 -469q-7 -10 -7 -21z" />
<glyph unicode="{" horiz-adv-x="1034" d="M514 854l74 606q12 99 112 99h406q12 0 21.5 -5.5t9.5 -13.5q0 -1 -1 -3t-1 -3l-2 -6l-23 -166q-1 -15 -11.5 -24t-25.5 -9h-199q-31 0 -34 -31l-62 -544q-3 -26 -18 -45t-28 -31t-13 -23q0 -9 14.5 -44t14.5 -62l-76 -572q0 -24 26 -24h187q28 0 28 -25v-8l-24 -160 q-6 -30 -37 -30h-401q-89 0 -89 77q0 13 3 25l86 674v8q0 23 -27 23h-170q-29 0 -29 24v8l29 201q1 15 11.5 24t25.5 9h176q24 0 33.5 13.5t13.5 37.5z" />
<glyph unicode="|" horiz-adv-x="583" d="M365 -459q-7 -33 -35 -33h-207q-29 0 -29 25v8l262 1852q6 30 39 30h203q27 0 27 -20q0 -1 -1 -4.5t-1 -5.5z" />
<glyph unicode="}" horiz-adv-x="1019" d="M725 434l-74 -606q-12 -98 -112 -98h-406q-31 0 -31 18q0 1 1 3t1 3l2 6l23 166q1 15 11.5 24t25.5 9h199q31 0 34 31l62 545q3 26 18 45t28 30.5t13 22.5q0 9 -14 44t-14 62l75 572q0 24 -26 24h-187q-28 0 -28 25v8l24 160q6 31 37 31h401q89 0 89 -78q0 -13 -3 -25 l-86 -674v-8q0 -22 27 -22h170q29 0 29 -25v-8l-29 -201q-1 -15 -11.5 -24t-25.5 -9h-176q-24 0 -33.5 -13.5t-13.5 -37.5z" />
<glyph unicode="~" horiz-adv-x="1056" d="M991 686q-1 -50 -9 -94t-28 -88t-50.5 -74.5t-79 -50t-111.5 -19.5q-59 0 -131 28t-138.5 55.5t-111.5 27.5q-47 0 -80.5 -25.5t-38.5 -58.5q-6 -25 -33 -25h-84q-30 0 -30 33q0 89 30.5 163.5t96.5 123.5t157 49q54 0 109 -18.5t93 -41t87 -41t92 -18.5q48 0 78.5 20 t36.5 58q6 25 35 25h84q26 0 26 -29z" />
<glyph unicode="&#xa1;" horiz-adv-x="686" d="M344 528h176q27 0 27 -24v-8l-94 -867q-3 -30 -35 -30h-258q-27 0 -27 30l174 867q6 32 37 32zM662 872q0 -75 -53 -127.5t-128 -52.5t-127.5 52.5t-52.5 127.5t52.5 128t127.5 53t128 -53t53 -128z" />
<glyph unicode="&#xa2;" horiz-adv-x="1116" d="M174 377l39 268q25 180 134.5 284.5t297.5 121.5l23 168q4 32 51 32h78q39 0 39 -32l-19 -168q148 -17 226.5 -104t78.5 -228q0 -37 -6 -74q-6 -31 -35 -31h-227q-29 0 -29 27q4 32 4 47q0 133 -135 133q-170 0 -196 -196l-31 -228q-4 -36 -4 -55q0 -141 143 -141 q159 0 185 180q3 27 32 27h228q26 0 26 -23v-8q-23 -199 -134 -301t-302 -105l-25 -166q-4 -32 -51 -32h-78q-38 0 -38 32l24 166q-148 15 -226.5 99t-78.5 227q0 37 6 80z" />
<glyph unicode="&#xa3;" horiz-adv-x="1267" d="M913 592h-145q-17 0 -29 -12q-8 -12 -8 -25q6 -25 6 -72q0 -102 -61 -194q-6 -6 -6 -21q0 -24 26 -24h502q27 0 27 -23v-8l-25 -180q-6 -33 -35 -33h-985q-28 0 -28 25v8l24 180q6 31 37 31q21 0 48 7.5t59.5 28t59 50t44.5 79.5t18 111q0 32 -8 51q-6 21 -26 21h-148 q-15 0 -22 7.5t-7 25.5l25 166q3 32 37 32h69q17 0 25.5 5.5t11.5 21.5q0 2 1 10t1 14q0 14 -5 62t-5 63q0 231 125 345t350 114q201 0 322 -91.5t121 -244.5q0 -36 -6 -73q-3 -31 -35 -31h-228q-26 0 -26 26q4 28 4 43q0 58 -38 98t-114 40q-188 0 -188 -260q0 -86 8 -117 q4 -25 29 -25h225q33 0 33 -32l-25 -166q-3 -33 -35 -33z" />
<glyph unicode="&#xa4;" horiz-adv-x="1363" d="M1270 733q-21 -146 -121 -266l127 -158q8 -8 8 -20q-4 -15 -16 -25l-148 -127q-15 -12 -26 -12q-12 0 -21 12l-151 185q-96 -27 -193 -27q-101 0 -190 27l-209 -185q-15 -12 -25 -12q-13 0 -22 12l-107 127q-8 12 -8 25q0 8 12 20l176 156q-39 74 -39 174q0 31 7 78l2 10 q23 146 106 250l-121 147q-6 9 -6 21q3 13 17 24l147 127q13 13 27 13q7 0 20 -13l135 -166q93 35 215 35q119 0 207 -32l187 163q13 13 24 13q10 0 23 -13l106 -127q8 -12 8 -24q0 -11 -14 -21l-164 -145q35 -66 35 -158q0 -37 -6 -78zM614 735l-6 -57q0 -65 40 -107.5 t124 -42.5q94 0 144.5 57t64.5 140l6 57q0 64 -41 107t-125 43q-94 0 -143.5 -57t-63.5 -140z" />
<glyph unicode="&#xa5;" horiz-adv-x="1095" d="M229 672h217l-28 119h-172q-29 0 -29 22l16 119q3 31 37 31h109l-100 436q0 11 10 17.5t22 6.5h224q26 0 32 -24l99 -453q4 -22 24 -22q15 0 27 20l205 463q8 16 32 16h220q24 0 24 -22q0 -15 -6 -27l-195 -411h111q27 0 27 -23l-17 -119q-6 -30 -35 -30h-165l-56 -119 h205q27 0 27 -23l-17 -119q-6 -30 -35 -30h-262q-6 -16 -12 -60l-61 -407q-1 -15 -11.5 -24t-25.5 -9h-224q-26 0 -26 23v10l67 430v8q0 6 -1 17t-1 12h-280q-29 0 -29 22l17 119q3 31 36 31z" />
<glyph unicode="&#xa6;" horiz-adv-x="604" d="M645 1393l-121 -744q-7 -33 -35 -33h-225q-13 0 -20.5 8.5t-7.5 20.5l120 748q6 30 39 30h223q11 0 19 -9.5t8 -20.5zM487 281l-118 -740q-7 -33 -35 -33h-225q-13 0 -21 8.5t-8 20.5l119 744q6 30 39 30h223q11 0 18.5 -9.5t7.5 -20.5z" />
<glyph unicode="&#xa7;" horiz-adv-x="1081" d="M838 51q41 -62 41 -149q0 -114 -35.5 -198.5t-99 -133t-142.5 -71.5t-174 -23q-181 0 -291 84.5t-110 228.5v16q0 40 4 56q7 26 32 26h152q26 0 33 -20q0 -1 1 -3t1 -3q6 -24 16.5 -46.5t31 -48.5t56.5 -41.5t84 -15.5q176 0 176 185q0 87 -67 151q-21 21 -90 80.5 t-123.5 113.5t-83.5 99q-62 96 -62 203q0 114 52 209t157 147q-28 61 -28 147q0 183 115.5 298.5t295.5 115.5q56 0 107 -9t102.5 -33.5t89 -62t61 -100.5t23.5 -143v-14q0 -14 -2.5 -23t-13.5 -16.5t-31 -7.5h-133q-19 0 -30.5 13.5t-15.5 33.5t-13 44t-21.5 44t-43 33.5 t-75.5 13.5q-76 0 -122 -41t-46 -117q0 -51 41 -110l230 -232q61 -61 96 -129t35 -164q0 -256 -180 -387zM518 719q-40 -13 -61 -56t-21 -90q0 -80 39 -116l227 -213q35 21 54.5 64.5t19.5 86.5q0 79 -26 103z" />
<glyph unicode="&#xa8;" horiz-adv-x="864" d="M684 1331q0 53 36.5 90t88.5 37q53 0 90 -37t37 -90q0 -52 -37 -88.5t-90 -36.5t-89 36t-36 89zM295 1331q0 53 36.5 90t88.5 37t89.5 -37t37.5 -90q0 -52 -37 -88.5t-90 -36.5q-52 0 -88.5 36t-36.5 89z" />
<glyph unicode="&#xa9;" horiz-adv-x="1705" d="M1014 1458q191 0 349 -85t250.5 -239t92.5 -346q0 -173 -65 -326t-176 -261t-265 -171t-326 -63q-138 0 -262.5 49t-215 134.5t-144 208t-53.5 262.5q0 236 102 426.5t289 300.5t424 110zM1006 1239q-174 0 -306 -78.5t-202 -214.5t-70 -309q0 -196 131.5 -325.5 t327.5 -129.5q163 0 298.5 83.5t211.5 223t76 302.5q0 126 -64 229.5t-171 161t-232 57.5zM1188 805h-137q-8 0 -12 3.5t-5 6t-0.5 11.5t0.5 10q0 24 -21.5 38.5t-47.5 14.5q-29 0 -51.5 -18.5t-26.5 -47.5q-2 -12 -11.5 -71t-16.5 -108.5t-7 -65.5q0 -27 19.5 -47.5 t46.5 -20.5q31 0 50.5 14.5t26 31.5t16 31.5t23.5 14.5h140q16 0 16 -20q0 -122 -76.5 -182t-202.5 -60q-100 0 -176 64.5t-76 162.5q0 19 3 37l34 250q14 102 92.5 158.5t184.5 56.5q101 0 171 -61t70 -160q0 -43 -26 -43z" />
<glyph unicode="&#xaa;" horiz-adv-x="983" d="M571 698q-64 0 -119.5 16t-103 49.5t-75 94t-27.5 141.5l14 136q33 323 381 323q58 0 100.5 -15t66.5 -29.5t38 -14.5q9 0 11 16.5t15 16.5h146q16 0 16 -19l-92 -670q-4 -22 -20 -22h-111q-8 0 -16.5 14.5t-20.5 14.5q-19 0 -84 -26t-119 -26zM319 526h500q29 0 29 -24 l-21 -199q-6 -31 -34 -31h-508q-27 0 -27 25l27 197q6 32 34 32zM537 1126l-15 -102q0 -33 24.5 -56.5t65.5 -23.5q95 0 105 86l14 100q0 35 -25 63t-65 28q-88 0 -104 -95z" />
<glyph unicode="&#xab;" horiz-adv-x="1308" d="M498 924h260q26 0 26 -23q0 -16 -8 -24l-270 -371q-6 -6 -6 -21q0 -13 10 -30l143 -326q0 -14 -10.5 -23.5t-24.5 -9.5h-239q-18 0 -25 17l-159 366q-7 14 -7 31q0 12 13 29l268 368q17 17 29 17zM1030 924h260q27 0 27 -23q0 -16 -8 -24l-271 -371q-6 -6 -6 -21 q0 -13 10 -30l144 -326q0 -14 -10.5 -23.5t-24.5 -9.5h-240q-17 0 -24 17l-160 366q-6 12 -6 31q0 13 12 29l268 368q17 17 29 17z" />
<glyph unicode="&#xac;" horiz-adv-x="1185" d="M807 504q0 22 -27 22h-551q-26 0 -26 25l28 215q3 33 35 33h826q28 0 28 -25v-8l-76 -535q-3 -30 -36 -30h-213q-11 0 -19 11t-8 26z" />
<glyph unicode="&#xad;" horiz-adv-x="786" d="M727 649q27 0 27 -33l-29 -172q-6 -28 -37 -28h-498q-28 0 -28 33l31 172q6 28 34 28h500z" />
<glyph unicode="&#xae;" horiz-adv-x="1114" d="M739 1458q185 0 313 -121t128 -305q0 -147 -70.5 -267t-192 -187.5t-268.5 -67.5q-181 0 -305.5 117.5t-124.5 296.5q0 151 65 273t184 191.5t271 69.5zM733 1319q-168 0 -268 -107t-100 -276q0 -124 83.5 -206.5t208.5 -82.5q180 0 276.5 110t96.5 277 q0 120 -87.5 202.5t-209.5 82.5zM813 924l43 -152q0 -10 -12 -10h-101q-6 0 -10 8l-33 139q-4 11 -12 11h-29q-11 0 -14 -13l-18 -129q0 -10 -11 -10h-100q-10 0 -10 10l63 441q0 10 13 10h149q66 0 109 -39.5t43 -104.5q0 -92 -64 -139q-2 0 -5 -3t-3 -7q0 -2 1 -6.5 t1 -5.5zM707 1137h-13q-11 0 -14 -13l-14 -100q0 -10 10 -10h26q29 0 46.5 15.5t17.5 45.5q0 33 -17 47.5t-42 14.5z" />
<glyph unicode="&#xaf;" horiz-adv-x="751" d="M807 1421q31 0 31 -32l-19 -132q0 -32 -31 -32h-499q-31 0 -31 32l18 132q0 32 33 32h498z" />
<glyph unicode="&#xb0;" horiz-adv-x="628" d="M477 1458q96 0 164 -67t68 -162q0 -109 -66.5 -170.5t-165.5 -61.5q-101 0 -167 61.5t-66 170.5q0 96 68 162.5t165 66.5zM477 1325q-39 0 -67.5 -28.5t-28.5 -67.5t28.5 -67.5t67.5 -28.5q40 0 68 28t28 68q0 39 -28.5 67.5t-67.5 28.5z" />
<glyph unicode="&#xb1;" horiz-adv-x="1273" d="M723 1395h223q27 0 27 -25l-39 -285q0 -24 29 -24h264q28 0 28 -25l-30 -221q-1 -15 -11.5 -24t-25.5 -9h-262q-34 0 -37 -30l-37 -271q-3 -32 -37 -32h-227q-27 0 -27 24l43 287q0 22 -26 22h-271q-28 0 -28 25l30 221q1 15 11.5 24t25.5 9h266q32 0 35 31l39 270 q1 15 11.5 24t25.5 9zM266 262h807q12 0 19.5 -7.5t7.5 -16.5l-31 -205q-7 -33 -37 -33h-807q-26 0 -26 25l30 206q3 31 37 31z" />
<glyph unicode="&#xb2;" horiz-adv-x="737" d="M504 823q0 -12 10 -12h238q12 0 12 -12l-23 -144q0 -6 -5 -10t-11 -4h-551q-10 0 -10 14l24 152q1 4 9 20l374 275q30 30 39 82l2 14q4 24 4 35q0 27 -18 42t-51 15q-32 0 -51 -16.5t-25 -35.5t-10 -48q-3 -14 -21 -14h-176q-12 0 -12 16q39 266 297 266q113 0 191.5 -51 t78.5 -141q0 -25 -2 -37l-14 -84q-8 -56 -32.5 -94.5t-68.5 -79.5l-194 -140q-4 -4 -4 -8z" />
<glyph unicode="&#xb3;" horiz-adv-x="821" d="M897 1223l-4 -21q-7 -44 -23.5 -73.5t-60.5 -63.5q-8 -8 -8 -18q0 -4 6 -7q53 -44 53 -135q0 -25 -2 -39l-4 -26q-37 -217 -324 -217q-134 0 -213 57.5t-79 153.5q0 24 2 38q3 17 20 17h180q15 0 15 -15q0 -2 -1 -7t-1 -7q0 -30 23 -49.5t59 -19.5q88 0 104 83l2 13 q0 3 1 9t1 9q0 72 -94 72h-21q-20 0 -20 20l14 97q3 20 21 20h24q92 0 111 72l2 8q2 8 2 25q0 31 -22 50t-58 19q-42 0 -68.5 -23t-31.5 -59q-3 -14 -21 -14h-166q-8 0 -11 3t-3 13q19 113 94 181.5t217 68.5q124 0 205.5 -54.5t81.5 -146.5q0 -22 -2 -34z" />
<glyph unicode="&#xb4;" horiz-adv-x="448" d="M618 1407q3 -6 3 -12q0 -11 -9 -23l-180 -276q-7 -11 -22 -11h-119q-13 0 -22 8.5t-9 22.5q0 7 4 19l109 274q6 14 24 14h193q23 0 28 -16z" />
<glyph unicode="&#xb5;" horiz-adv-x="1161" d="M782 375l86 608q3 30 37 33h234q11 0 18.5 -9t7.5 -24l-88 -602q-2 -6 -2 -21q0 -68 33 -101.5t84 -33.5q13 0 21 -9t8 -23l-27 -193q-7 -35 -39 -35q-81 0 -147 18t-127 74q-12 6 -29 6q-11 0 -23 -8q-109 -90 -276 -90q-71 0 -123 15l-29 -211q-14 -98 -14 -230 q0 -15 -10 -23t-25 -8h-235q-29 0 -29 37q0 141 14 234l183 1204q7 33 39 33h223q26 0 26 -33l-84 -600q-2 -10 -2 -33q0 -52 32.5 -88.5t103.5 -36.5q140 0 159 150z" />
<glyph unicode="&#xb6;" horiz-adv-x="1267" d="M244 1151q0 114 80 193t194 79h760q27 0 27 -30l-193 -1360q-3 -33 -35 -33h-219q-33 0 -33 33l158 1118q0 17 -10 24t-19 7h-123q-31 0 -38 -35l-158 -1114q-1 -15 -11.5 -24t-25.5 -9h-217q-31 0 -31 33l117 848q-97 19 -160 95.5t-63 174.5z" />
<glyph unicode="&#xb7;" horiz-adv-x="561" d="M197 494q0 66 45.5 111.5t111.5 45.5t112 -45.5t46 -111.5t-46 -112t-112 -46t-111.5 46t-45.5 112z" />
<glyph unicode="&#xb8;" horiz-adv-x="739" d="M281 -23l155 -6q-11 -3 -16 -18l-19 -62q0 -16 19 -16q68 0 108.5 -46t40.5 -114q0 -108 -57.5 -157.5t-153.5 -49.5h-172q-9 0 -15.5 7.5t-6.5 15.5l22 88q3 21 27 21h129q70 0 70 61q0 55 -58 55h-106q-21 0 -21 19l56 170q4 12 4 18q0 12 -6 14z" />
<glyph unicode="&#xb9;" horiz-adv-x="669" d="M668 1405l-95 -598q0 -12 15 -12h86q16 0 16 -17l-22 -133q-3 -18 -21 -18h-428q-16 0 -16 18l22 133q3 17 21 17h86q15 0 18 16l72 451q0 12 -14 12h-76q-17 0 -17 18l19 113q4 18 22 18h295q17 0 17 -18z" />
<glyph unicode="&#xba;" horiz-adv-x="944" d="M662 1458q88 0 165 -31.5t129 -98.5t52 -157l-25 -188q-30 -154 -120.5 -219.5t-256.5 -65.5q-55 0 -104.5 9t-96.5 30.5t-80.5 55t-54 86t-20.5 118.5l16 133q20 164 121.5 246t274.5 82zM543 1126l-15 -102q0 -33 23.5 -56.5t64.5 -23.5q97 0 107 86l12 107 q0 34 -25.5 59t-66.5 25q-84 0 -100 -95zM299 526h500q28 0 28 -24l-20 -199q-6 -31 -35 -31h-508q-26 0 -26 25l26 197q6 32 35 32z" />
<glyph unicode="&#xbb;" horiz-adv-x="1394" d="M819 922h260q12 0 29 -17l233 -325q13 -17 13 -29q0 -19 -6 -31l-187 -409q-7 -17 -24 -17h-240q-14 0 -24.5 9.5t-10.5 23.5q0 11 41 98.5t87 181.5t52 109v10q0 15 -6 21l-235 327q-8 12 -8 25q0 23 26 23zM565 94h-221q-15 0 -25 11t-10 26q0 1 1 5t1 5q5 14 51 108 t88 181.5t42 95.5q0 12 -9 21l-235 327q-8 12 -8 25q0 23 26 23h260q19 0 29 -17l233 -325q13 -16 13 -33q0 -15 -6 -27l-187 -409q-3 -7 -18.5 -12t-24.5 -5z" />
<glyph unicode="&#xbc;" horiz-adv-x="1794" d="M465 59q-21 11 -21 27q0 2 9 20l878 1334q13 18 29 18q10 0 16 -4l142 -84q18 -11 18 -33q0 -12 -4 -18l-873 -1331q-15 -23 -28 -23q-11 0 -15 4zM1393 326l20 137q0 10 -12 10q-5 0 -11.5 -4t-7.5 -8l-96 -123q-6 -12 -6 -19q0 -12 16 -12h78q16 0 19 19zM1714 164 q-3 -19 -20 -19h-95q-17 0 -20 -18l-18 -109q-3 -18 -19 -18h-182q-17 0 -17 18l19 113q0 14 -16 14h-261q-14 0 -14 19l21 129q0 12 10 22l364 469q4 13 25 13h178q12 0 12 -17l-71 -461q0 -12 16 -12h92q15 0 15 -18zM649 1405l-94 -598q0 -12 14 -12h86q17 0 17 -17 l-23 -133q-3 -18 -20 -18h-428q-17 0 -17 18l23 133q3 17 20 17h86q16 0 19 16l71 451q0 12 -14 12h-76q-16 0 -16 18l18 113q4 18 23 18h295q16 0 16 -18z" />
<glyph unicode="&#xbd;" horiz-adv-x="1910" d="M465 59q-21 11 -21 27q0 2 9 20l878 1334q13 18 29 18q10 0 16 -4l142 -84q18 -11 18 -33q0 -12 -4 -18l-873 -1331q-15 -23 -28 -23q-11 0 -15 4zM1542 182q0 -12 10 -12h238q12 0 12 -12l-22 -144q0 -6 -5.5 -10t-11.5 -4h-551q-10 0 -10 14l25 152q2 8 8 20l375 275 q30 30 39 82l2 14q4 24 4 35q0 27 -18.5 42t-51.5 15q-32 0 -51 -16.5t-25 -35.5t-10 -48q-3 -14 -20 -14h-176q-13 0 -13 16q39 266 297 266q113 0 192 -51t79 -141q0 -19 -3 -37l-14 -84q-8 -56 -32 -94.5t-68 -79.5l-195 -140q-4 -4 -4 -8zM649 1405l-94 -598 q0 -12 14 -12h86q17 0 17 -17l-23 -133q-3 -18 -20 -18h-428q-17 0 -17 18l23 133q3 17 20 17h86q16 0 19 16l71 451q0 12 -14 12h-76q-16 0 -16 18l18 113q4 18 23 18h295q16 0 16 -18z" />
<glyph unicode="&#xbe;" horiz-adv-x="1859" d="M541 59q-21 11 -21 27q0 4 8 20l879 1334q13 18 29 18q10 0 16 -4l141 -84q19 -11 19 -33q0 -12 -4 -18l-873 -1331q-15 -23 -28 -23q-11 0 -15 4zM1448 326l20 137q0 10 -12 10q-14 0 -18 -12l-97 -123q-6 -12 -6 -19q0 -12 17 -12h78q15 0 18 19zM1769 164 q-3 -19 -20 -19h-94q-18 0 -21 -18l-18 -109q-3 -18 -19 -18h-182q-16 0 -16 18l18 113q0 14 -16 14h-260q-15 0 -15 19l21 129q0 12 10 22l365 469q4 13 24 13h178q13 0 13 -17l-72 -461q0 -12 16 -12h93q14 0 14 -18zM864 1223l-4 -21q-7 -44 -23.5 -73.5t-60.5 -63.5 q-8 -8 -8 -18q0 -4 6 -7q53 -44 53 -135q0 -25 -2 -39l-4 -26q-37 -217 -323 -217q-134 0 -213.5 57.5t-79.5 153.5q0 24 2 38q3 17 20 17h181q14 0 14 -15q0 -2 -1 -7t-1 -7q0 -30 23 -49.5t59 -19.5q88 0 104 83l2 13q0 3 1 9t1 9q0 72 -94 72h-20q-21 0 -21 20l14 97 q3 20 21 20h25q91 0 110 72l2 8q2 8 2 25q0 31 -22 50t-58 19q-42 0 -68.5 -23t-31.5 -59q-3 -14 -20 -14h-166q-8 0 -11.5 3t-3.5 13q19 113 94.5 181.5t217.5 68.5q124 0 205 -54.5t81 -146.5q0 -22 -2 -34z" />
<glyph unicode="&#xbf;" horiz-adv-x="1099" d="M549 535h211q28 0 28 -23v-8q0 -73 -16 -131.5t-46 -99.5t-60.5 -68.5t-71.5 -52.5t-62.5 -40t-49 -40.5t-40 -55t-12.5 -65.5q0 -75 42 -114.5t110 -39.5q40 0 70 13t45.5 33.5t22.5 40.5t7 40v10q0 39 33 39h231q32 0 35 -26q2 -16 2 -45q0 -151 -120 -244.5 t-322 -93.5q-223 0 -340 97.5t-117 264.5q0 89 24 159t56 109.5t80 77.5q22 17 57.5 40.5t60 40.5t50 40t40 50.5t17.5 60.5q3 31 35 31zM842 874q0 -75 -52.5 -127.5t-127.5 -52.5t-128 52.5t-53 127.5t53 128t128 53t127.5 -53t52.5 -128z" />
<glyph unicode="&#xc0;" horiz-adv-x="1064" d="M565 1821h172q18 0 25 -17l94 -215q4 -16 4 -20q0 -12 -9.5 -20.5t-21.5 -8.5h-118q-13 0 -23 10l-145 219q-8 16 -8 25q0 13 9 20t21 7zM651 784q-24 0 -33 -20l-94 -264q-4 -12 -4 -23q0 -22 25 -22h108q35 0 35 41l-10 262q0 10 -8 18t-19 8zM336 0h-250q-25 0 -25 20 q0 12 132.5 358t265.5 686l133 341q8 18 31 18h235q20 0 23 -18l123 -1380q0 -25 -25 -25h-238q-9 0 -15.5 7t-6.5 16l-17 180q-3 18 -24 18h-213q-25 0 -35 -24l-63 -181q-5 -16 -31 -16z" />
<glyph unicode="&#xc1;" horiz-adv-x="1064" d="M768 1821h172q12 0 21.5 -7t9.5 -20q0 -9 -8 -25l-146 -219q-10 -10 -22 -10h-119q-12 0 -21.5 8.5t-9.5 20.5q0 4 4 20l94 215q7 17 25 17zM651 784q-24 0 -33 -20l-94 -264q-4 -12 -4 -23q0 -22 25 -22h108q35 0 35 41l-10 262q0 10 -8 18t-19 8zM336 0h-250 q-25 0 -25 20q0 12 132.5 358t265.5 686l133 341q8 18 31 18h235q20 0 23 -18l123 -1380q0 -25 -25 -25h-238q-9 0 -15.5 7t-6.5 16l-17 180q-3 18 -24 18h-213q-25 0 -35 -24l-63 -181q-5 -16 -31 -16z" />
<glyph unicode="&#xc2;" horiz-adv-x="1064" d="M651 784q-24 0 -33 -20l-94 -264q-4 -12 -4 -23q0 -22 25 -22h108q35 0 35 41l-10 262q0 10 -8 18t-19 8zM336 0h-250q-25 0 -25 20q0 12 132.5 358t265.5 686l133 341q8 18 31 18h235q20 0 23 -18l123 -1380q0 -25 -25 -25h-238q-9 0 -15.5 7t-6.5 16l-17 180 q-3 18 -24 18h-213q-25 0 -35 -24l-63 -181q-5 -16 -31 -16zM662 1821h180q20 0 30 -17l150 -215q4 -8 4 -20t-9.5 -20.5t-21.5 -8.5h-118q-13 0 -23 10l-84 111q-8 8 -18 8q-11 0 -19 -8l-94 -111q-10 -10 -23 -10h-118q-12 0 -21.5 8.5t-9.5 20.5t4 20l162 215 q13 17 29 17z" />
<glyph unicode="&#xc3;" horiz-adv-x="1064" d="M651 784q-24 0 -33 -20l-94 -264q-4 -12 -4 -23q0 -22 25 -22h108q35 0 35 41l-10 262q0 10 -8 18t-19 8zM336 0h-250q-25 0 -25 20q0 12 132.5 358t265.5 686l133 341q8 18 31 18h235q20 0 23 -18l123 -1380q0 -25 -25 -25h-238q-9 0 -15.5 7t-6.5 16l-17 180 q-3 18 -24 18h-213q-25 0 -35 -24l-63 -181q-5 -16 -31 -16zM1092 1796q0 -128 -48.5 -182.5t-152.5 -54.5q-60 0 -141 47q-3 2 -12 7t-12.5 7t-12 6.5t-12 6t-11.5 5.5t-12.5 5.5t-11.5 3.5t-12 3t-11 2t-12 1q-84 0 -96 -72q-3 -25 -31 -25h-74q-24 0 -24 23v8 q0 114 64 175t167 61q68 0 135 -43q64 -41 109 -41q34 0 55.5 12t26.5 51q3 23 32 23h64q13 0 23 -7.5t10 -21.5z" />
<glyph unicode="&#xc4;" horiz-adv-x="1064" d="M821 1683q0 53 36.5 90t88.5 37t89.5 -37t37.5 -90q0 -52 -37 -88t-90 -36t-89 36t-36 88zM432 1683q0 53 36.5 90t88.5 37q53 0 90 -37t37 -90q0 -52 -37 -88t-90 -36t-89 36t-36 88zM651 784q-24 0 -33 -20l-94 -264q-4 -12 -4 -23q0 -22 25 -22h108q35 0 35 41 l-10 262q0 10 -8 18t-19 8zM336 0h-250q-25 0 -25 20q0 12 132.5 358t265.5 686l133 341q8 18 31 18h235q20 0 23 -18l123 -1380q0 -25 -25 -25h-238q-9 0 -15.5 7t-6.5 16l-17 180q-3 18 -24 18h-213q-25 0 -35 -24l-63 -181q-5 -16 -31 -16z" />
<glyph unicode="&#xc5;" horiz-adv-x="1064" d="M846 1348l-285 8q-67 64 -67 160q0 89 63 152t152 63q91 0 154 -63t63 -152q0 -104 -80 -168zM709 1606q-35 0 -61.5 -26.5t-26.5 -63.5t26 -64t62 -27q90 0 90 91q0 37 -26.5 63.5t-63.5 26.5zM637 784q-24 0 -33 -20l-94 -264q-4 -12 -4 -23q0 -22 24 -22h117 q35 0 35 41l-18 262q0 10 -8 18t-19 8zM336 0h-250q-25 0 -25 20q0 12 125.5 358t251.5 686l125 341q8 18 31 18h235q20 0 23 -18l152 -1380q0 -25 -25 -25h-238q-9 0 -15.5 7t-6.5 16l-17 180q-3 18 -24 18h-213q-25 0 -35 -24l-63 -181q-5 -16 -31 -16z" />
<glyph unicode="&#xc6;" horiz-adv-x="1390" d="M1425 1423q27 0 27 -20l-25 -180q-6 -33 -38 -33h-338q-32 0 -35 -31l-43 -311q0 -11 7.5 -17t16.5 -6h306q30 0 30 -24l-26 -178q-3 -31 -35 -31h-305q-32 0 -35 -31l-43 -301q0 -24 26 -24h359q29 0 29 -31l-25 -172q-6 -33 -37 -33h-643q-13 0 -21 9t-8 22l29 207 q-4 20 -25 20h-81q-22 0 -31 -18l-96 -224q-10 -16 -31 -16h-266q-27 0 -27 25q0 9 6 18l658 1364q8 16 30 16h690zM608 514q30 0 33 31l21 135q0 22 -27 22q-21 0 -31 -20l-51 -123q-6 -9 -6 -18q0 -27 26 -27h35z" />
<glyph unicode="&#xc7;" horiz-adv-x="1212" d="M1120 352q-28 -189 -125.5 -281.5t-289.5 -105.5q-10 -5 -13 -16l-18 -58q0 -16 18 -16q69 0 109.5 -46t40.5 -114q0 -108 -57.5 -157.5t-153.5 -49.5h-172q-9 0 -16 7.5t-7 15.5l23 88q3 21 26 21h129q70 0 70 61q0 55 -57 55h-107q-20 0 -20 19l55 168q4 12 4 18t-4 10 q-92 10 -164 44.5t-116 86.5t-66.5 114t-22.5 130q0 30 7 74l92 604q14 91 45.5 164.5t87.5 136.5t146.5 98t209.5 35q195 0 327 -90t132 -233q0 -40 -4 -60q-5 -26 -35 -26h-225q-25 0 -25 20q0 64 -45.5 110t-124.5 46q-91 0 -137.5 -56t-58.5 -143l-95 -631 q-4 -28 -4 -43q0 -66 44.5 -109.5t125.5 -43.5q83 0 127.5 36.5t59.5 112.5q6 27 30 27h226q28 0 28 -23z" />
<glyph unicode="&#xc8;" horiz-adv-x="985" d="M512 1821h172q18 0 25 -17l94 -215q4 -16 4 -20q0 -12 -9.5 -20.5t-21.5 -8.5h-119q-12 0 -22 10l-146 219q-8 16 -8 25q0 13 9.5 20t21.5 7zM1020 1423q27 0 27 -20l-23 -180q-6 -33 -39 -33h-340q-32 0 -35 -31l-43 -311q0 -11 8 -17t17 -6h309q27 0 27 -26l-27 -176 q-3 -31 -35 -31h-305q-32 0 -35 -31l-43 -301q0 -24 27 -24h358q29 0 29 -31l-25 -172q-3 -18 -11 -25.5t-25 -7.5h-643q-29 0 -29 25v8l192 1360q6 30 39 30h625z" />
<glyph unicode="&#xc9;" horiz-adv-x="985" d="M743 1841h172q12 0 21.5 -7t9.5 -19q0 -9 -8 -25l-145 -240q-10 -10 -23 -10h-119q-12 0 -21 8.5t-9 20.5q0 4 4 20l94 236q6 16 24 16zM1020 1423q27 0 27 -20l-23 -180q-6 -33 -39 -33h-340q-32 0 -35 -31l-43 -311q0 -11 8 -17t17 -6h309q27 0 27 -26l-27 -176 q-3 -31 -35 -31h-305q-32 0 -35 -31l-43 -301q0 -24 27 -24h358q29 0 29 -31l-25 -172q-3 -18 -11 -25.5t-25 -7.5h-643q-29 0 -29 25v8l192 1360q6 30 39 30h625z" />
<glyph unicode="&#xca;" horiz-adv-x="985" d="M1020 1423q27 0 27 -20l-23 -180q-6 -33 -39 -33h-340q-32 0 -35 -31l-43 -311q0 -11 8 -17t17 -6h309q27 0 27 -26l-27 -176q-3 -31 -35 -31h-305q-32 0 -35 -31l-43 -301q0 -24 27 -24h358q29 0 29 -31l-25 -172q-3 -18 -11 -25.5t-25 -7.5h-643q-29 0 -29 25v8 l192 1360q6 30 39 30h625zM631 1821h180q21 0 31 -17l149 -215q4 -8 4 -20t-9 -20.5t-21 -8.5h-119q-13 0 -23 10l-84 111q-8 8 -18 8q-11 0 -19 -8l-94 -111q-10 -10 -22 -10h-119q-12 0 -21.5 8.5t-9.5 20.5t4 20l162 215q13 17 29 17z" />
<glyph unicode="&#xcb;" horiz-adv-x="985" d="M782 1688q0 53 36.5 90t88.5 37q53 0 90 -37.5t37 -89.5t-37 -88.5t-90 -36.5t-89 36.5t-36 88.5zM393 1688q0 53 36.5 90t88.5 37t89.5 -37.5t37.5 -89.5t-37 -88.5t-90 -36.5q-52 0 -88.5 36.5t-36.5 88.5zM1020 1423q27 0 27 -20l-23 -180q-6 -33 -39 -33h-340 q-32 0 -35 -31l-43 -311q0 -11 8 -17t17 -6h309q27 0 27 -26l-27 -176q-3 -31 -35 -31h-305q-32 0 -35 -31l-43 -301q0 -24 27 -24h358q29 0 29 -31l-25 -172q-3 -18 -11 -25.5t-25 -7.5h-643q-29 0 -29 25v8l192 1360q6 30 39 30h625z" />
<glyph unicode="&#xcc;" horiz-adv-x="604" d="M348 1821h172q18 0 25 -17l94 -215q4 -16 4 -20q0 -12 -9.5 -20.5t-21.5 -8.5h-118q-13 0 -23 10l-145 219q-9 18 -9 25q0 13 9.5 20t21.5 7zM449 33q-7 -33 -35 -33h-221q-13 0 -21 9t-8 22l192 1362q6 30 39 30h221q12 0 18.5 -7.5t6.5 -18.5z" />
<glyph unicode="&#xcd;" horiz-adv-x="604" d="M510 1821h172q12 0 21.5 -7t9.5 -20q0 -9 -8 -25l-146 -219q-10 -10 -22 -10h-119q-12 0 -21.5 8.5t-9.5 20.5q0 4 4 20l94 215q7 17 25 17zM449 33q-7 -33 -35 -33h-221q-13 0 -21 9t-8 22l192 1362q6 30 39 30h221q12 0 18.5 -7.5t6.5 -18.5z" />
<glyph unicode="&#xce;" horiz-adv-x="604" d="M449 33q-7 -33 -35 -33h-221q-13 0 -21 9t-8 22l192 1362q6 30 39 30h221q12 0 18.5 -7.5t6.5 -18.5zM426 1821h180q21 0 31 -17l149 -215q5 -10 5 -20q0 -12 -9.5 -20.5t-21.5 -8.5h-119q-13 0 -23 10l-83 111q-8 8 -19 8q-10 0 -18 -8l-95 -111q-10 -10 -22 -10h-119 q-12 0 -21.5 8.5t-9.5 20.5q0 10 5 20l161 215q13 17 29 17z" />
<glyph unicode="&#xcf;" horiz-adv-x="604" d="M580 1688q0 53 36.5 90t88.5 37t89 -37t37 -90q0 -52 -36.5 -88.5t-89.5 -36.5t-89 36.5t-36 88.5zM190 1688q0 53 36.5 90t88.5 37q53 0 90 -37.5t37 -89.5t-37 -88.5t-90 -36.5t-89 36.5t-36 88.5zM449 33q-7 -33 -35 -33h-221q-13 0 -21 9t-8 22l192 1362q6 30 39 30 h221q12 0 18.5 -7.5t6.5 -18.5z" />
<glyph unicode="&#xd0;" horiz-adv-x="1228" d="M160 616q-31 0 -31 29l21 154q3 32 32 32h94l80 562q6 30 39 30h467q108 0 185.5 -25t120 -70.5t62 -100.5t19.5 -123q0 -38 -6 -82l-90 -623q-14 -101 -43.5 -172t-82 -123.5t-134 -78t-195.5 -25.5h-505q-29 0 -29 25v8l82 583h-86zM483 266q0 -33 27 -33h168 q78 0 127 42.5t61 123.5l88 627q2 12 2 35q0 61 -34 95t-97 34h-180q-32 0 -35 -33l-47 -326h139q31 0 31 -28l-20 -156q-3 -31 -33 -31h-148z" />
<glyph unicode="&#xd1;" horiz-adv-x="1222" d="M1174 1796q0 -128 -48.5 -182.5t-152.5 -54.5q-61 0 -142 47q-4 2 -13.5 7.5t-13.5 8t-12.5 7t-13.5 6.5t-13 5.5t-13.5 5.5t-12.5 3.5t-13.5 2.5t-12.5 1q-85 0 -97 -72q-2 -25 -30 -25h-74q-25 0 -25 23v8q0 114 64.5 175t167.5 61q68 0 135 -43q64 -41 109 -41 q34 0 55 12t26 51q3 23 33 23h64q13 0 23 -7.5t10 -21.5zM827 20l-223 637q-6 17 -24 17q-32 0 -35 -31l-90 -610q-6 -33 -35 -33h-230q-26 0 -26 31l194 1362q6 30 37 30h207q19 0 25 -20l217 -598q4 -19 24 -19q31 0 37 31l80 576q6 30 37 30h211q31 0 31 -28l-185 -1364 q-6 -31 -37 -31h-188q-21 0 -27 20z" />
<glyph unicode="&#xd2;" d="M600 1821h172q18 0 25 -17l94 -215q4 -16 4 -20q0 -12 -9.5 -20.5t-21.5 -8.5h-119q-12 0 -22 10l-145 219q-9 18 -9 25q0 13 9.5 20t21.5 7zM1133 365q-10 -71 -31 -128t-60 -108.5t-94.5 -86.5t-137 -55t-185.5 -20q-225 0 -333 96t-108 252q0 37 6 74l95 631 q10 71 32 132.5t61.5 118.5t93.5 97.5t133.5 65t176.5 24.5q215 0 335 -98.5t120 -249.5q0 -36 -6 -74zM573 1028l-92 -631q-4 -28 -4 -41q0 -65 42.5 -110t127.5 -45q171 0 197 176l96 655q4 28 4 41q0 64 -42.5 108t-127.5 44q-49 0 -86.5 -17t-60.5 -46.5t-35.5 -62.5 t-18.5 -71z" />
<glyph unicode="&#xd3;" d="M854 1821h172q12 0 21.5 -7t9.5 -20q0 -9 -8 -25l-146 -219q-10 -10 -22 -10h-119q-12 0 -21.5 8.5t-9.5 20.5q0 4 4 20l94 215q7 17 25 17zM1133 365q-10 -71 -31 -128t-60 -108.5t-94.5 -86.5t-137 -55t-185.5 -20q-225 0 -333 96t-108 252q0 37 6 74l95 631 q10 71 32 132.5t61.5 118.5t93.5 97.5t133.5 65t176.5 24.5q215 0 335 -98.5t120 -249.5q0 -36 -6 -74zM573 1028l-92 -631q-4 -28 -4 -41q0 -65 42.5 -110t127.5 -45q171 0 197 176l96 655q4 28 4 41q0 64 -42.5 108t-127.5 44q-49 0 -86.5 -17t-60.5 -46.5t-35.5 -62.5 t-18.5 -71z" />
<glyph unicode="&#xd4;" d="M1133 365q-10 -71 -31 -128t-60 -108.5t-94.5 -86.5t-137 -55t-185.5 -20q-225 0 -333 96t-108 252q0 37 6 74l95 631q10 71 32 132.5t61.5 118.5t93.5 97.5t133.5 65t176.5 24.5q215 0 335 -98.5t120 -249.5q0 -36 -6 -74zM573 1028l-92 -631q-4 -28 -4 -41 q0 -65 42.5 -110t127.5 -45q171 0 197 176l96 655q4 28 4 41q0 64 -42.5 108t-127.5 44q-49 0 -86.5 -17t-60.5 -46.5t-35.5 -62.5t-18.5 -71zM735 1821h180q21 0 31 -17l150 -215q4 -8 4 -20t-9.5 -20.5t-21.5 -8.5h-119q-12 0 -22 10l-84 111q-8 8 -19 8q-10 0 -18 -8 l-94 -111q-10 -10 -23 -10h-119q-12 0 -21 8.5t-9 20.5t4 20l162 215q13 17 28 17z" />
<glyph unicode="&#xd5;" d="M1194 1796q0 -128 -48.5 -182.5t-152.5 -54.5q-60 0 -141 47q-3 2 -12 7t-12.5 7t-12 6.5t-12 6t-11.5 5.5t-12.5 5.5t-11.5 3.5t-12 3t-11 2t-12 1q-84 0 -96 -72q-3 -25 -31 -25h-74q-24 0 -24 23v8q0 114 64 175t167 61q68 0 135 -43q64 -41 109 -41q34 0 55.5 12 t26.5 51q3 23 33 23h63q13 0 23 -7.5t10 -21.5zM1133 365q-10 -71 -31 -128t-60 -108.5t-94.5 -86.5t-137 -55t-185.5 -20q-225 0 -333 96t-108 252q0 37 6 74l95 631q10 71 32 132.5t61.5 118.5t93.5 97.5t133.5 65t176.5 24.5q215 0 335 -98.5t120 -249.5q0 -36 -6 -74z M573 1028l-92 -631q-4 -28 -4 -41q0 -65 42.5 -110t127.5 -45q171 0 197 176l96 655q4 28 4 41q0 64 -42.5 108t-127.5 44q-49 0 -86.5 -17t-60.5 -46.5t-35.5 -62.5t-18.5 -71z" />
<glyph unicode="&#xd6;" d="M899 1688q0 53 36.5 90t88.5 37t89.5 -37.5t37.5 -89.5t-37 -88.5t-90 -36.5q-52 0 -88.5 36.5t-36.5 88.5zM510 1688q0 53 36.5 90t88.5 37q53 0 90 -37.5t37 -89.5t-37 -88.5t-90 -36.5t-89 36.5t-36 88.5zM1133 365q-10 -71 -31 -128t-60 -108.5t-94.5 -86.5t-137 -55 t-185.5 -20q-225 0 -333 96t-108 252q0 37 6 74l95 631q10 71 32 132.5t61.5 118.5t93.5 97.5t133.5 65t176.5 24.5q215 0 335 -98.5t120 -249.5q0 -36 -6 -74zM573 1028l-92 -631q-4 -28 -4 -41q0 -65 42.5 -110t127.5 -45q171 0 197 176l96 655q4 28 4 41q0 64 -42.5 108 t-127.5 44q-49 0 -86.5 -17t-60.5 -46.5t-35.5 -62.5t-18.5 -71z" />
<glyph unicode="&#xd7;" horiz-adv-x="1214" d="M186 250l273 239q16 16 16 27q0 7 -8 19l-234 278q-8 12 -8 18q0 10 17 27l147 127q15 12 25 12t20 -10l234 -276q8 -11 20 -11q11 0 25 11l272 241q13 13 25 13q9 0 20 -11l135 -155q9 -13 9 -19q0 -12 -17 -26l-272 -242q-17 -14 -17 -25q0 -7 9 -20l231 -272 q8 -12 8 -19q0 -10 -16 -26l-148 -130q-12 -10 -24 -10q-14 0 -21 10l-231 273q-10 10 -19 10q-12 0 -24 -12l-273 -242q-12 -10 -24 -10q-16 0 -23 10l-135 156q-6 9 -6 16q0 15 14 29z" />
<glyph unicode="&#xd8;" d="M1133 365q-10 -71 -31 -128t-60 -108.5t-94.5 -86.5t-137 -55t-185.5 -20q-123 0 -211 31l-33 -70q-10 -20 -29 -20q-6 0 -61 33q-6 3 -6 16q0 4 4 16l33 68q-138 91 -138 274q0 37 6 74l95 631q10 71 32 132.5t61.5 118.5t93.5 97.5t133.5 65t176.5 24.5q126 0 219 -35 l43 86q10 21 29 21q7 0 62 -33q6 -3 6 -16q0 -5 -4 -17l-43 -88q70 -47 106.5 -116t36.5 -150q0 -36 -6 -74zM940 1032q4 28 4 41l-412 -837q41 -35 115 -35q171 0 197 176zM573 1028l-92 -631q-4 -28 -4 -41l410 836q-45 33 -113 33q-49 0 -86.5 -17t-60.5 -46.5 t-35.5 -62.5t-18.5 -71z" />
<glyph unicode="&#xd9;" horiz-adv-x="1224" d="M631 1819h172q17 0 24 -17l95 -215q4 -16 4 -20q0 -12 -9.5 -20.5t-21.5 -8.5h-119q-12 0 -22 10l-146 219q-8 16 -8 25q0 13 9.5 20t21.5 7zM1266 1393l-148 -1039q-27 -190 -148 -289.5t-335 -99.5q-215 0 -321.5 101.5t-106.5 265.5q0 33 6 71l143 990q3 30 37 30h221 q15 0 22 -6.5t7 -23.5l-141 -1004q-2 -12 -2 -35q0 -63 39.5 -109t117.5 -46q47 0 81 15.5t53.5 43.5t29.5 57t15 66l143 1012q3 30 37 30h223q27 0 27 -30z" />
<glyph unicode="&#xda;" horiz-adv-x="1224" d="M858 1821h172q12 0 21.5 -7t9.5 -20q0 -9 -8 -25l-146 -219q-10 -10 -22 -10h-119q-12 0 -21.5 8.5t-9.5 20.5q0 4 4 20l95 215q7 17 24 17zM1266 1393l-148 -1039q-27 -190 -148 -289.5t-335 -99.5q-215 0 -321.5 101.5t-106.5 265.5q0 33 6 71l143 990q3 30 37 30h221 q15 0 22 -6.5t7 -23.5l-141 -1004q-2 -12 -2 -35q0 -63 39.5 -109t117.5 -46q47 0 81 15.5t53.5 43.5t29.5 57t15 66l143 1012q3 30 37 30h223q27 0 27 -30z" />
<glyph unicode="&#xdb;" horiz-adv-x="1224" d="M733 1821h180q21 0 31 -17l150 -215q4 -8 4 -20t-9.5 -20.5t-21.5 -8.5h-119q-12 0 -22 10l-84 111q-8 8 -19 8q-10 0 -18 -8l-94 -111q-10 -10 -23 -10h-119q-12 0 -21 8.5t-9 20.5t4 20l162 215q13 17 28 17zM1266 1393l-148 -1039q-27 -190 -148 -289.5t-335 -99.5 q-215 0 -321.5 101.5t-106.5 265.5q0 33 6 71l143 990q3 30 37 30h221q15 0 22 -6.5t7 -23.5l-141 -1004q-2 -12 -2 -35q0 -63 39.5 -109t117.5 -46q47 0 81 15.5t53.5 43.5t29.5 57t15 66l143 1012q3 30 37 30h223q27 0 27 -30z" />
<glyph unicode="&#xdc;" horiz-adv-x="1224" d="M877 1688q0 53 36 90t88 37q53 0 90 -37.5t37 -89.5t-37 -88.5t-90 -36.5q-52 0 -88 36t-36 89zM487 1688q0 53 36.5 90t88.5 37t89.5 -37.5t37.5 -89.5t-37 -88.5t-90 -36.5q-52 0 -88.5 36.5t-36.5 88.5zM1266 1393l-148 -1039q-14 -98 -43.5 -167t-84 -120.5 t-141 -76.5t-208.5 -25q-207 0 -320.5 93.5t-113.5 250.5q0 35 6 72l143 1012q3 30 37 30h221q15 0 22 -6.5t7 -23.5l-141 -1004q-2 -12 -2 -35q0 -63 39.5 -109t117.5 -46q47 0 81 15t53.5 42.5t29.5 56.5t15 66l143 1014q3 30 37 30h223q27 0 27 -30z" />
<glyph unicode="&#xdd;" horiz-adv-x="1083" d="M760 1821h172q12 0 21.5 -7t9.5 -20q0 -7 -9 -25l-145 -219q-10 -10 -23 -10h-118q-12 0 -21.5 8.5t-9.5 20.5q0 4 4 20l94 215q7 17 25 17zM657 0h-223q-26 0 -26 23v10l69 471v8l-2 31l-188 856q0 11 10 17.5t22 6.5h224q26 0 32 -24l84 -418q2 -9 9 -16t16 -7 q14 0 27 21l198 428q8 16 33 16h219q25 0 25 -22q0 -15 -6 -27l-408 -831q-9 -17 -14 -62l-64 -448q-1 -15 -11.5 -24t-25.5 -9z" />
<glyph unicode="&#xde;" horiz-adv-x="1144" d="M453 33q-7 -33 -35 -33h-225q-13 0 -21 10t-8 23l194 1360q6 30 39 30h224q26 0 26 -30l-24 -176q0 -17 11 -28t28 -11h30q205 0 324 -121t119 -314q0 -109 -25 -191.5t-70 -137t-113 -89t-148 -49t-181 -14.5h-78q-17 0 -28 -10.5t-13 -26.5zM647 944h-31q-31 0 -38 -33 l-54 -383q0 -12 8.5 -22t26.5 -10h57q108 0 173 57t65 174q0 217 -207 217z" />
<glyph unicode="&#xdf;" horiz-adv-x="1193" d="M143 41l158 1108q9 64 30 121.5t59.5 111t92 92.5t131 62t172.5 23q94 0 171 -28.5t126.5 -76.5t76 -108.5t26.5 -126.5q0 -112 -78 -209q-12 -16 -35.5 -43t-35 -41.5t-21.5 -35.5t-10 -40q0 -43 12.5 -79t44.5 -85q80 -123 80 -252q0 -233 -111 -333.5t-344 -100.5h-53 q-13 0 -20 9t-7 20l21 157q6 37 37 37h12q78 0 126 39t48 113q0 52 -17 95.5t-51 94.5q-65 98 -65 207q0 61 17.5 114.5t36.5 83t50 66.5q2 3 15.5 18.5t16 18.5t13 16.5t13 18.5t9.5 17t9 19.5t4 18.5t2 21q0 50 -36.5 88.5t-102.5 38.5q-68 0 -113 -41.5t-57 -122.5 l-168 -1106q-7 -41 -47 -41h-201q-17 0 -27 13.5t-10 27.5z" />
<glyph unicode="&#xe0;" horiz-adv-x="1165" d="M444 1497q5 16 29 16h193q18 0 24 -14l109 -274q4 -12 4 -19q0 -13 -8.5 -21.5t-22.5 -8.5h-119q-15 0 -22 10l-180 276q-9 12 -9 23q0 8 2 12zM512 -33q-166 0 -257 84t-91 232l43 362q11 86 40.5 156.5t82.5 129t139.5 91.5t200.5 33q62 0 132.5 -18.5t106.5 -45.5 q18 -14 35 -14q21 0 21 14q0 25 26 25h152q9 0 15.5 -7.5t6.5 -19.5l-135 -958q-2 -13 -11 -22t-22 -9h-153q-11 0 -20 8.5t-9 18.5q0 24 -20 24q-16 0 -40.5 -13t-50 -29t-77 -29t-115.5 -13zM786 377l35 246q2 10 2 32q0 59 -36.5 100.5t-110.5 41.5q-80 0 -124 -47 t-54 -119l-35 -240q-2 -8 -2 -24q0 -152 149 -152q155 0 176 162z" />
<glyph unicode="&#xe1;" horiz-adv-x="1165" d="M961 1497q2 -4 2 -12q0 -11 -9 -23l-180 -276q-7 -10 -22 -10h-119q-14 0 -22.5 8.5t-8.5 21.5q0 7 4 19l109 274q6 14 24 14h193q24 0 29 -16zM512 -33q-166 0 -257 84t-91 232l43 362q11 86 40.5 156.5t82.5 129t139.5 91.5t200.5 33q62 0 132.5 -18.5t106.5 -45.5 q18 -14 35 -14q21 0 21 14q0 25 26 25h152q9 0 15.5 -7.5t6.5 -19.5l-135 -958q-2 -13 -11 -22t-22 -9h-153q-11 0 -20 8.5t-9 18.5q0 24 -20 24q-16 0 -40.5 -13t-50 -29t-77 -29t-115.5 -13zM786 377l35 246q2 10 2 32q0 59 -36.5 100.5t-110.5 41.5q-80 0 -124 -47 t-54 -119l-35 -240q-2 -8 -2 -24q0 -152 149 -152q155 0 176 162z" />
<glyph unicode="&#xe2;" horiz-adv-x="1165" d="M649 1513h180q21 0 31 -16l127 -272q4 -8 4 -21q0 -12 -9 -20t-21 -8h-119q-13 0 -23 10l-76 127q-8 8 -18 8t-18 -8l-103 -127q-10 -10 -22 -10h-119q-12 0 -21.5 8t-9.5 20q0 13 4 21l185 272q12 16 28 16zM512 -33q-166 0 -257 84t-91 232l43 362q11 86 40.5 156.5 t82.5 129t139.5 91.5t200.5 33q62 0 132.5 -18.5t106.5 -45.5q18 -14 35 -14q21 0 21 14q0 25 26 25h152q9 0 15.5 -7.5t6.5 -19.5l-135 -958q-2 -13 -11 -22t-22 -9h-153q-11 0 -20 8.5t-9 18.5q0 24 -20 24q-16 0 -40.5 -13t-50 -29t-77 -29t-115.5 -13zM786 377l35 246 q2 10 2 32q0 59 -36.5 100.5t-110.5 41.5q-80 0 -124 -47t-54 -119l-35 -240q-2 -8 -2 -24q0 -152 149 -152q155 0 176 162z" />
<glyph unicode="&#xe3;" horiz-adv-x="1165" d="M1087 1450q0 -128 -48.5 -183t-151.5 -55q-59 0 -142 48q-4 2 -13.5 7.5t-13.5 8t-12.5 7t-13.5 6.5t-13 5.5t-13.5 5.5t-12.5 3.5t-13.5 2.5t-12.5 1q-85 0 -97 -72q-2 -25 -30 -25h-74q-25 0 -25 23v8q0 114 64.5 175t167.5 61q68 0 135 -43q64 -41 109 -41q34 0 55 12 t26 51q3 23 33 23h64q13 0 22.5 -7.5t9.5 -21.5zM512 -33q-166 0 -257 84t-91 232l43 362q11 86 40.5 156.5t82.5 129t139.5 91.5t200.5 33q62 0 132.5 -18.5t106.5 -45.5q18 -14 35 -14q21 0 21 14q0 25 26 25h152q9 0 15.5 -7.5t6.5 -19.5l-135 -958q-2 -13 -11 -22 t-22 -9h-153q-11 0 -20 8.5t-9 18.5q0 24 -20 24q-16 0 -40.5 -13t-50 -29t-77 -29t-115.5 -13zM786 377l35 246q2 10 2 32q0 59 -36.5 100.5t-110.5 41.5q-80 0 -124 -47t-54 -119l-35 -240q-2 -8 -2 -24q0 -152 149 -152q155 0 176 162z" />
<glyph unicode="&#xe4;" horiz-adv-x="1165" d="M791 1339q0 53 36 90t88 37q53 0 90 -37t37 -90q0 -52 -37 -88.5t-90 -36.5q-52 0 -88 36t-36 89zM401 1339q0 53 36.5 90t88.5 37t89.5 -37t37.5 -90q0 -52 -37 -88.5t-90 -36.5q-52 0 -88.5 36t-36.5 89zM512 -33q-166 0 -257 84t-91 232l43 362q11 86 40.5 156.5 t82.5 129t139.5 91.5t200.5 33q62 0 132.5 -18.5t106.5 -45.5q18 -14 35 -14q21 0 21 14q0 25 26 25h152q9 0 15.5 -7.5t6.5 -19.5l-135 -958q-2 -13 -11 -22t-22 -9h-153q-11 0 -20 8.5t-9 18.5q0 24 -20 24q-16 0 -40.5 -13t-50 -29t-77 -29t-115.5 -13zM786 377l35 246 q2 10 2 32q0 59 -36.5 100.5t-110.5 41.5q-80 0 -124 -47t-54 -119l-35 -240q-2 -8 -2 -24q0 -152 149 -152q155 0 176 162z" />
<glyph unicode="&#xe5;" horiz-adv-x="1165" d="M725 1565q91 0 154 -63t63 -152q0 -90 -63 -151.5t-154 -61.5q-90 0 -152.5 61.5t-62.5 151.5q0 89 63 152t152 63zM725 1440q-35 0 -61.5 -26.5t-26.5 -63.5t24 -63.5t60 -26.5q41 0 67.5 23t26.5 67q0 37 -26.5 63.5t-63.5 26.5zM512 -33q-166 0 -257 84t-91 232 l43 362q11 86 40.5 156.5t82.5 129t139.5 91.5t200.5 33q62 0 132.5 -18.5t106.5 -45.5q18 -14 35 -14q21 0 21 14q0 25 26 25h152q9 0 15.5 -7.5t6.5 -19.5l-135 -958q-2 -13 -11 -22t-22 -9h-153q-11 0 -20 8.5t-9 18.5q0 24 -20 24q-16 0 -40.5 -13t-50 -29t-77 -29 t-115.5 -13zM786 377l35 246q2 10 2 32q0 59 -36.5 100.5t-110.5 41.5q-80 0 -124 -47t-54 -119l-35 -240q-2 -8 -2 -24q0 -152 149 -152q155 0 176 162z" />
<glyph unicode="&#xe6;" horiz-adv-x="1742" d="M504 -33q-153 0 -246.5 85.5t-93.5 230.5l43 362q11 86 40.5 156.5t83 129t140.5 91.5t201 33q160 0 272 -84q19 -15 33 -15q11 0 31 15q109 84 303 84q113 0 205.5 -39t149 -118.5t56.5 -186.5q0 -39 -6 -82l-14 -99q-8 -51 -45 -84.5t-88 -33.5h-430q-25 0 -42.5 -15.5 t-21.5 -44.5l-4 -39q0 -48 35.5 -80t103.5 -32q19 0 28.5 0.5t29 3.5t32.5 9.5t29.5 20.5t28.5 33q19 27 51 27h219q27 0 27 -25q-25 -90 -68.5 -151.5t-105.5 -93.5t-131 -45t-160 -13q-99 0 -164.5 18.5t-126.5 59.5q-23 18 -37 18q-16 0 -35 -12q-59 -42 -132.5 -63 t-190.5 -21zM1122 653v-16q0 -21 11.5 -33t29.5 -12h209q31 0 44 13t18 42q2 10 2 25q0 58 -36.5 96.5t-105.5 38.5q-75 0 -118.5 -44t-53.5 -110zM786 377l35 246q2 10 2 32q0 59 -36.5 100.5t-110.5 41.5q-80 0 -124 -47t-54 -119l-35 -246q-2 -8 -2 -25q0 -63 34 -104 t115 -41q91 0 129 45t47 117z" />
<glyph unicode="&#xe7;" horiz-adv-x="1124" d="M1069 350v-8q-8 -56 -23.5 -102.5t-47.5 -95t-77.5 -83.5t-117 -60t-162.5 -32q-14 0 -18 -16l-17 -62q0 -16 19 -16q68 0 108.5 -46t40.5 -114q0 -108 -57.5 -157.5t-153.5 -49.5h-172q-9 0 -15.5 7.5t-6.5 15.5l22 88q3 21 27 21h129q69 0 69 61q0 55 -57 55h-106 q-21 0 -21 19l55 170q5 15 5 18q0 10 -9 10q-146 19 -232.5 106.5t-86.5 219.5q0 37 6 78l37 266q26 190 144.5 301t332.5 111q193 0 306.5 -100t113.5 -242q0 -25 -4 -39q-9 -29 -37 -29h-221q-14 0 -22.5 8t-8.5 21q-2 55 -39.5 89t-101.5 34q-73 0 -115.5 -43.5 t-52.5 -108.5l-39 -254q-2 -10 -2 -31q0 -57 38.5 -96t106.5 -39q67 0 106 27t52 90q6 29 37 29h241q27 0 27 -21z" />
<glyph unicode="&#xe8;" horiz-adv-x="1124" d="M453 1497q5 16 28 16h193q18 0 24 -14l109 -274q4 -12 4 -19q0 -13 -8.5 -21.5t-22.5 -8.5h-118q-16 0 -23 10l-180 276q-8 11 -8 23q0 8 2 12zM594 201q110 0 147 67q13 27 52 27h219q26 0 26 -25q-25 -90 -68.5 -151.5t-105.5 -93.5t-131 -45t-160 -13q-197 0 -303 89 t-106 239q0 49 8 90l35 260q25 183 146 296.5t339 113.5q113 0 206 -39t150.5 -118.5t57.5 -186.5q0 -39 -6 -82l-15 -99q-8 -51 -46 -84.5t-89 -33.5h-428q-25 0 -42 -15.5t-21 -44.5l-4 -39q0 -48 35.5 -80t103.5 -32zM506 653v-16q0 -21 11.5 -33t29.5 -12h209 q31 0 43.5 12.5t17.5 42.5q2 10 2 25q0 58 -36.5 96.5t-104.5 38.5q-75 0 -118.5 -44t-53.5 -110z" />
<glyph unicode="&#xe9;" horiz-adv-x="1124" d="M594 201q110 0 147 67q13 27 52 27h219q26 0 26 -25q-25 -90 -68.5 -151.5t-105.5 -93.5t-131 -45t-160 -13q-197 0 -303 89t-106 239q0 49 8 90l35 260q25 183 146 296.5t339 113.5q113 0 206 -39t150.5 -118.5t57.5 -186.5q0 -39 -6 -82l-15 -99q-8 -51 -46 -84.5 t-89 -33.5h-428q-25 0 -42 -15.5t-21 -44.5l-4 -39q0 -48 35.5 -80t103.5 -32zM506 653v-16q0 -21 11.5 -33t29.5 -12h209q31 0 43.5 12.5t17.5 42.5q2 10 2 25q0 58 -36.5 96.5t-104.5 38.5q-75 0 -118.5 -44t-53.5 -110zM954 1497q2 -4 2 -12q0 -12 -8 -23l-180 -276 q-7 -10 -23 -10h-118q-14 0 -22.5 8.5t-8.5 21.5q0 7 4 19l109 274q6 14 24 14h193q23 0 28 -16z" />
<glyph unicode="&#xea;" horiz-adv-x="1124" d="M594 201q110 0 147 67q13 27 52 27h219q26 0 26 -25q-25 -90 -68.5 -151.5t-105.5 -93.5t-131 -45t-160 -13q-197 0 -303 89t-106 239q0 49 8 90l35 260q25 183 146 296.5t339 113.5q113 0 206 -39t150.5 -118.5t57.5 -186.5q0 -39 -6 -82l-15 -99q-8 -51 -46 -84.5 t-89 -33.5h-428q-25 0 -42 -15.5t-21 -44.5l-4 -39q0 -48 35.5 -80t103.5 -32zM506 653v-16q0 -21 11.5 -33t29.5 -12h209q31 0 43.5 12.5t17.5 42.5q2 10 2 25q0 58 -36.5 96.5t-104.5 38.5q-75 0 -118.5 -44t-53.5 -110zM647 1513h180q21 0 31 -16l127 -272q4 -8 4 -21 q0 -12 -9.5 -20t-21.5 -8h-118q-13 0 -23 10l-76 127q-8 8 -18 8t-18 -8l-103 -127q-10 -10 -22 -10h-119q-12 0 -21.5 8t-9.5 20q0 13 4 21l184 272q12 16 29 16z" />
<glyph unicode="&#xeb;" horiz-adv-x="1124" d="M780 1339q0 53 36.5 90t88.5 37q53 0 90 -37t37 -90q0 -52 -37 -88.5t-90 -36.5t-89 36t-36 89zM391 1339q0 53 36.5 90t88.5 37t89.5 -37t37.5 -90q0 -52 -37 -88.5t-90 -36.5q-52 0 -88.5 36t-36.5 89zM594 201q110 0 147 67q13 27 52 27h219q26 0 26 -25 q-25 -90 -68.5 -151.5t-105.5 -93.5t-131 -45t-160 -13q-197 0 -303 89t-106 239q0 49 8 90l35 260q25 183 146 296.5t339 113.5q113 0 206 -39t150.5 -118.5t57.5 -186.5q0 -39 -6 -82l-15 -99q-8 -51 -46 -84.5t-89 -33.5h-428q-25 0 -42 -15.5t-21 -44.5l-4 -39 q0 -48 35.5 -80t103.5 -32zM506 653v-16q0 -21 11.5 -33t29.5 -12h209q31 0 43.5 12.5t17.5 42.5q2 10 2 25q0 58 -36.5 96.5t-104.5 38.5q-75 0 -118.5 -44t-53.5 -110z" />
<glyph unicode="&#xec;" horiz-adv-x="569" d="M209 1497q5 16 29 16h192q19 0 25 -14l108 -274q4 -12 4 -19q0 -14 -8.5 -22t-21.5 -8h-119q-16 0 -23 10l-180 276q-8 11 -8 23q0 8 2 12zM395 0h-223q-12 0 -20.5 9t-8.5 22l136 954q3 31 34 31h228q12 0 23 -10t11 -23l-143 -950q-6 -33 -37 -33z" />
<glyph unicode="&#xed;" horiz-adv-x="569" d="M688 1497q2 -4 2 -12q0 -12 -8 -23l-180 -276q-7 -10 -23 -10h-119q-14 0 -22 8t-8 22q0 7 4 19l108 274q6 14 25 14h192q24 0 29 -16zM395 0h-223q-12 0 -20.5 9t-8.5 22l136 954q3 31 34 31h228q12 0 23 -10t11 -23l-143 -950q-6 -33 -37 -33z" />
<glyph unicode="&#xee;" horiz-adv-x="569" d="M360 1513h181q20 0 30 -16l150 -272q4 -8 4 -21q0 -12 -9.5 -20t-21.5 -8h-119q-12 0 -22 10l-84 117q-8 8 -18 8q-11 0 -19 -8l-94 -117q-10 -10 -23 -10h-118q-12 0 -21.5 8t-9.5 20q0 13 4 21l162 272q12 16 28 16zM395 0h-223q-12 0 -20.5 9t-8.5 22l136 954 q3 31 34 31h228q12 0 23 -10t11 -23l-143 -950q-6 -33 -37 -33z" />
<glyph unicode="&#xef;" horiz-adv-x="569" d="M516 1339q0 53 36.5 90t88.5 37q53 0 90 -37t37 -90q0 -52 -37 -88.5t-90 -36.5t-89 36t-36 89zM127 1339q0 53 36.5 90t88.5 37t89.5 -37t37.5 -90q0 -52 -37 -88.5t-90 -36.5q-52 0 -88.5 36t-36.5 89zM395 0h-223q-12 0 -20.5 9t-8.5 22l136 954q3 31 34 31h228 q12 0 23 -10t11 -23l-143 -950q-6 -33 -37 -33z" />
<glyph unicode="&#xf0;" horiz-adv-x="1136" d="M995 1456l-123 -90q104 -107 173 -273.5t69 -351.5q0 -45 -16 -151l-33 -213q-9 -60 -23 -108.5t-38 -97t-60.5 -84.5t-86.5 -64.5t-120 -43t-157 -14.5q-203 0 -309.5 91.5t-106.5 244.5q0 37 6 78l33 225q12 88 44.5 158.5t91.5 129.5t156 91.5t226 32.5q4 0 8 4.5 t4 9.5q0 11 -4 19q-44 92 -102 137l-158 -117q-10 -6 -25 -6q-14 0 -22 10l-70 82q-8 8 -8 21q0 16 14 24l136 98q-74 45 -129 72q-13 8 -13 25q0 7 6 16l121 174q9 14 27 14q10 0 41 -12t84.5 -41.5t105.5 -66.5l154 110q15 10 22 10q9 0 19 -10l72 -90q6 -9 6 -20 q0 -12 -15 -23zM496 594l-35 -207q-2 -10 -2 -29q0 -57 34.5 -96t104.5 -39q151 0 176 164l31 209q2 10 2 31q0 56 -36 93.5t-107 37.5q-143 0 -168 -164z" />
<glyph unicode="&#xf1;" horiz-adv-x="1161" d="M1096 1456q0 -260 -201 -260q-31 0 -61 10.5t-46.5 20.5t-44.5 30q-69 50 -112 50q-49 0 -69.5 -26t-20.5 -62q0 -25 -31 -25h-80q-29 0 -29 31q0 51 10 94t32.5 82t65.5 61.5t103 22.5q16 0 31.5 -2t27 -4.5t26 -8.5t22 -9.5t21.5 -12t18.5 -11.5t19 -13.5t17.5 -12.5 q54 -37 98 -37q32 0 52 19t20 61q0 31 30 31h68q33 0 33 -29zM688 797q-75 0 -114.5 -41t-49.5 -105l-92 -618q-7 -33 -37 -33h-221q-13 0 -22 10t-9 23l136 952q3 31 36 31h148q31 0 31 -27v-8q0 -18 18 -18q14 0 33 14q51 35 117.5 56.5t123.5 21.5q149 0 241.5 -80 t92.5 -221q0 -38 -6 -78l-94 -643q-7 -33 -39 -33h-223q-12 0 -19.5 9t-7.5 24l84 606q2 10 2 33q0 50 -33.5 87.5t-95.5 37.5z" />
<glyph unicode="&#xf2;" horiz-adv-x="1136" d="M455 1497q5 16 28 16h193q18 0 24 -14l109 -274q4 -12 4 -19q0 -13 -8.5 -21.5t-22.5 -8.5h-118q-16 0 -23 10l-180 276q-8 11 -8 23q0 8 2 12zM1100 621l-35 -246q-31 -221 -151 -315.5t-334 -94.5q-193 0 -304.5 86.5t-111.5 245.5q0 37 6 80l37 266q12 87 44.5 159 t88 130t144 90.5t202.5 32.5q196 0 308 -100.5t112 -254.5q0 -36 -6 -79zM500 633l-39 -244q-2 -10 -2 -31q0 -56 35 -95.5t104 -39.5q152 0 176 162l35 250q2 10 2 31q0 55 -36 93t-105 38q-145 0 -170 -164z" />
<glyph unicode="&#xf3;" horiz-adv-x="1136" d="M954 1497q2 -4 2 -12q0 -12 -8 -23l-180 -276q-7 -10 -23 -10h-118q-14 0 -22.5 8.5t-8.5 21.5q0 7 4 19l109 274q6 14 24 14h193q23 0 28 -16zM1100 621l-35 -246q-31 -221 -151 -315.5t-334 -94.5q-193 0 -304.5 86.5t-111.5 245.5q0 37 6 80l37 266q12 87 44.5 159 t88 130t144 90.5t202.5 32.5q196 0 308 -100.5t112 -254.5q0 -36 -6 -79zM500 633l-39 -244q-2 -10 -2 -31q0 -56 35 -95.5t104 -39.5q152 0 176 162l35 250q2 10 2 31q0 55 -36 93t-105 38q-145 0 -170 -164z" />
<glyph unicode="&#xf4;" horiz-adv-x="1136" d="M1100 621l-35 -246q-31 -221 -151 -315.5t-334 -94.5q-193 0 -304.5 86.5t-111.5 245.5q0 37 6 80l37 266q12 87 44.5 159t88 130t144 90.5t202.5 32.5q196 0 308 -100.5t112 -254.5q0 -36 -6 -79zM500 633l-39 -244q-2 -10 -2 -31q0 -56 35 -95.5t104 -39.5 q152 0 176 162l35 250q2 10 2 31q0 55 -36 93t-105 38q-145 0 -170 -164zM678 1513h180q21 0 31 -16l127 -272q4 -8 4 -21q0 -12 -9.5 -20t-21.5 -8h-119q-12 0 -22 10l-76 127q-8 8 -18 8q-11 0 -19 -8l-102 -127q-10 -10 -23 -10h-118q-12 0 -21.5 8t-9.5 20q0 13 4 21 l184 272q12 16 29 16z" />
<glyph unicode="&#xf5;" horiz-adv-x="1136" d="M1081 1450q0 -128 -48.5 -183t-151.5 -55q-59 0 -142 48q-4 2 -13.5 7.5t-13.5 8t-12.5 7t-13.5 6.5t-13 5.5t-13.5 5.5t-12.5 3.5t-13.5 2.5t-12.5 1q-85 0 -97 -72q-2 -25 -30 -25h-74q-25 0 -25 23v8q0 114 64.5 175t167.5 61q68 0 135 -43q64 -41 108 -41 q34 0 55.5 12t26.5 51q3 23 33 23h64q13 0 22.5 -7.5t9.5 -21.5zM1100 621l-35 -246q-31 -221 -151 -315.5t-334 -94.5q-193 0 -304.5 86.5t-111.5 245.5q0 37 6 80l37 266q12 87 44.5 159t88 130t144 90.5t202.5 32.5q196 0 308 -100.5t112 -254.5q0 -36 -6 -79zM500 633 l-39 -244q-2 -10 -2 -31q0 -56 35 -95.5t104 -39.5q152 0 176 162l35 250q2 10 2 31q0 55 -36 93t-105 38q-145 0 -170 -164z" />
<glyph unicode="&#xf6;" horiz-adv-x="1136" d="M805 1339q0 53 36.5 90t88.5 37t89.5 -37t37.5 -90q0 -52 -37 -88.5t-90 -36.5q-52 0 -88.5 36t-36.5 89zM416 1339q0 53 36.5 90t88.5 37q53 0 90 -37t37 -90q0 -52 -37 -88.5t-90 -36.5t-89 36t-36 89zM1100 621l-35 -246q-31 -221 -151 -315.5t-334 -94.5 q-193 0 -304.5 86.5t-111.5 245.5q0 37 6 80l37 266q12 87 44.5 159t88 130t144 90.5t202.5 32.5q196 0 308 -100.5t112 -254.5q0 -36 -6 -79zM500 633l-39 -244q-2 -10 -2 -31q0 -56 35 -95.5t104 -39.5q152 0 176 162l35 250q2 10 2 31q0 55 -36 93t-105 38 q-145 0 -170 -164z" />
<glyph unicode="&#xf7;" horiz-adv-x="1259" d="M465 55q0 70 49.5 119t118.5 49t118.5 -49t49.5 -119q0 -69 -49.5 -118.5t-118.5 -49.5t-118.5 49.5t-49.5 118.5zM608 967q0 69 49.5 118.5t118.5 49.5t118.5 -49.5t49.5 -118.5q0 -70 -49.5 -119t-118.5 -49t-118.5 49t-49.5 119zM1167 637h-895q-33 0 -39 -31 l-24 -188q0 -23 27 -23h892q30 0 37 33l27 186q0 23 -25 23z" />
<glyph unicode="&#xf8;" horiz-adv-x="1136" d="M1100 621l-35 -246q-31 -221 -151 -315.5t-334 -94.5q-93 0 -177 23l-53 -101q-10 -20 -28 -20q-7 0 -62 33q-6 3 -6 16q0 4 4 16l51 95q-145 87 -145 270q0 37 6 80l37 266q12 87 44.5 159t88 130t144 90.5t202.5 32.5q91 0 168 -25l64 119q10 20 28 20q15 0 68 -32 q6 -3 6 -17q0 -4 -4 -16l-66 -119q75 -47 115.5 -122t40.5 -163q0 -36 -6 -79zM811 666q0 17 -8 49l-264 -484q21 -8 59 -8q152 0 176 162l35 250q2 10 2 31zM500 633l-39 -244q-2 -10 -2 -31q0 -24 6 -45l258 475q-24 9 -53 9q-145 0 -170 -164z" />
<glyph unicode="&#xf9;" horiz-adv-x="1161" d="M479 1497q5 16 29 16h192q19 0 25 -14l109 -274q4 -12 4 -19q0 -13 -8.5 -21.5t-22.5 -8.5h-119q-15 0 -22 10l-181 276q-8 11 -8 23q0 8 2 12zM616 225q75 0 114.5 41t49.5 105l92 612q7 33 37 33h226q26 0 26 -25v-8l-135 -952q-3 -31 -37 -31h-151q-27 0 -27 18v15 q0 18 -18 18q-14 0 -33 -14q-92 -70 -225 -70q-170 0 -258.5 86.5t-88.5 235.5q0 31 7 78l90 616q7 33 39 33h223q26 0 26 -33l-84 -600q-2 -10 -2 -33q0 -50 33.5 -87.5t95.5 -37.5z" />
<glyph unicode="&#xfa;" horiz-adv-x="1161" d="M995 1497q2 -4 2 -12q0 -12 -8 -23l-180 -276q-7 -10 -23 -10h-118q-14 0 -22.5 8.5t-8.5 21.5q0 7 4 19l109 274q6 14 24 14h193q23 0 28 -16zM616 225q75 0 114.5 41t49.5 105l92 612q7 33 37 33h226q26 0 26 -25v-8l-135 -952q-3 -31 -37 -31h-151q-27 0 -27 18v15 q0 18 -18 18q-14 0 -33 -14q-92 -70 -225 -70q-170 0 -258.5 86.5t-88.5 235.5q0 31 7 78l90 616q7 33 39 33h223q26 0 26 -33l-84 -600q-2 -10 -2 -33q0 -50 33.5 -87.5t95.5 -37.5z" />
<glyph unicode="&#xfb;" horiz-adv-x="1161" d="M670 1513h180q21 0 31 -16l127 -272q4 -8 4 -21q0 -12 -9.5 -20t-21.5 -8h-119q-12 0 -22 10l-76 127q-8 8 -19 8q-10 0 -18 -8l-102 -127q-10 -10 -23 -10h-119q-12 0 -21 8t-9 20q0 13 4 21l184 272q12 16 29 16zM616 225q75 0 114.5 41t49.5 105l92 612q7 33 37 33 h226q26 0 26 -25v-8l-135 -952q-3 -31 -37 -31h-151q-27 0 -27 18v15q0 18 -18 18q-14 0 -33 -14q-92 -70 -225 -70q-170 0 -258.5 86.5t-88.5 235.5q0 31 7 78l90 616q7 33 39 33h223q26 0 26 -33l-84 -600q-2 -10 -2 -33q0 -50 33.5 -87.5t95.5 -37.5z" />
<glyph unicode="&#xfc;" horiz-adv-x="1161" d="M809 1339q0 53 36.5 90t88.5 37t89.5 -37t37.5 -90q0 -52 -37 -88.5t-90 -36.5q-52 0 -88.5 36t-36.5 89zM420 1339q0 53 36.5 90t88.5 37q53 0 90 -37t37 -90q0 -52 -37 -88.5t-90 -36.5t-89 36t-36 89zM616 225q75 0 114.5 41t49.5 105l92 612q7 33 37 33h226 q26 0 26 -25v-8l-135 -952q-3 -31 -37 -31h-151q-27 0 -27 18v15q0 18 -18 18q-14 0 -33 -14q-92 -70 -225 -70q-170 0 -258.5 86.5t-88.5 235.5q0 31 7 78l90 616q7 33 39 33h223q26 0 26 -33l-84 -600q-2 -10 -2 -33q0 -50 33.5 -87.5t95.5 -37.5z" />
<glyph unicode="&#xfd;" horiz-adv-x="960" d="M868 1497q2 -4 2 -12q0 -12 -8 -23l-180 -276q-7 -10 -23 -10h-118q-14 0 -22.5 8.5t-8.5 21.5q0 7 4 19l109 274q6 14 24 14h193q23 0 28 -16zM47 -492q-14 0 -20.5 6.5t-6.5 24.5l21 201q3 33 35 33q106 0 149 100l94 221q3 6 3 15q0 14 -3 26l-155 836q0 2 -1 5t-1 5 q0 15 10 25t25 10h229q20 0 23 -15l75 -409q1 -9 10 -15t17 -6q25 0 31 19l172 411q5 15 28 15h234q10 0 18 -8t8 -19l-579 -1257q-54 -113 -152.5 -168.5t-263.5 -55.5z" />
<glyph unicode="&#xfe;" horiz-adv-x="1169" d="M315 -492h-223q-29 0 -29 25v8l293 1987q3 31 37 31h221q16 0 24.5 -10t8.5 -21l-78 -520q0 -8 6 -13.5t15 -5.5q12 0 22 8q85 58 193 58q161 0 247.5 -88t86.5 -242q0 -45 -4 -68l-39 -278q-28 -201 -134.5 -306.5t-318.5 -105.5q-36 0 -69 7t-65 18t-44 14q-4 2 -16 2 q-25 0 -29 -26l-68 -441q-7 -33 -37 -33zM524 633l-37 -248q-2 -10 -2 -29q0 -56 35 -94.5t105 -38.5q158 0 184 164l39 244q2 8 2 26q0 58 -36 99t-107 41q-82 0 -128.5 -48.5t-54.5 -115.5z" />
<glyph unicode="&#xff;" horiz-adv-x="960" d="M662 1339q0 53 36 90t88 37t89.5 -37t37.5 -90q0 -52 -37 -88.5t-90 -36.5q-52 0 -88 36t-36 89zM272 1339q0 53 36.5 90t88.5 37q53 0 90 -37t37 -90q0 -52 -37 -88.5t-90 -36.5t-89 36t-36 89zM47 -492q-14 0 -20.5 6.5t-6.5 24.5l21 201q3 33 35 33q106 0 149 100 l94 221q3 6 3 15q0 14 -3 26l-155 836q0 2 -1 5t-1 5q0 15 10 25t25 10h229q20 0 23 -15l75 -409q1 -9 10 -15t17 -6q25 0 31 19l172 411q5 15 28 15h234q10 0 18 -8t8 -19l-579 -1257q-54 -113 -152.5 -168.5t-263.5 -55.5z" />
<glyph unicode="&#x152;" horiz-adv-x="1622" d="M1657 1423q26 0 26 -20l-24 -180q-6 -33 -39 -33h-338q-32 0 -35 -31l-43 -311q0 -11 8 -17t17 -6h309q27 0 27 -26l-27 -176q-3 -31 -35 -31h-305q-32 0 -35 -31l-43 -301q0 -24 27 -24h358q29 0 29 -31l-25 -172q-3 -18 -11 -25.5t-25 -7.5h-619q-101 -33 -229 -33 q-225 0 -333 96t-108 252q0 37 6 74l95 631q10 71 32 132.5t61.5 118.5t93.5 97.5t133.5 65t176.5 24.5q124 0 217 -35h658zM573 1028l-92 -635q-4 -28 -4 -41q0 -64 42.5 -107.5t127.5 -43.5q171 0 197 176l96 655q4 28 4 41q0 64 -42.5 108t-127.5 44q-49 0 -86.5 -17 t-60.5 -46.5t-35.5 -62.5t-18.5 -71z" />
<glyph unicode="&#x153;" horiz-adv-x="1710" d="M1178 201q110 0 147 67q13 27 51 27h219q27 0 27 -25q-25 -90 -68.5 -151.5t-105.5 -93.5t-131 -45t-160 -13q-173 0 -276 68q-114 -68 -301 -68q-201 0 -308.5 90t-107.5 242q0 37 6 80l37 264q12 87 44.5 159t88 130t144 90.5t202.5 32.5q175 0 285 -82q127 82 305 82 q113 0 206 -39t150.5 -118.5t57.5 -186.5q0 -31 -7 -82l-14 -99q-8 -51 -46 -84.5t-89 -33.5h-428q-25 0 -42.5 -15.5t-21.5 -44.5l-4 -39q0 -48 36 -80t104 -32zM596 223q104 0 152 78q0 45 8 84l35 260q3 36 12 70q-11 36 -45.5 59t-87.5 23q-145 0 -170 -164l-39 -242 q-2 -10 -2 -31q0 -57 34 -97t103 -40zM1090 653v-16q0 -21 11 -33t29 -12h209q31 0 44 13t18 42q2 10 2 25q0 58 -36.5 96.5t-104.5 38.5q-75 0 -118.5 -44t-53.5 -110z" />
<glyph unicode="&#x178;" horiz-adv-x="1083" d="M799 1688q0 53 36.5 90t88.5 37t89.5 -37.5t37.5 -89.5t-37 -88.5t-90 -36.5q-52 0 -88.5 36.5t-36.5 88.5zM410 1688q0 53 36.5 90t88.5 37q53 0 90 -37.5t37 -89.5t-37 -88.5t-90 -36.5t-89 36.5t-36 88.5zM657 0h-223q-26 0 -26 23v10l69 471v8l-2 31l-188 856 q0 11 10 17.5t22 6.5h224q26 0 32 -24l84 -418q2 -9 9 -16t16 -7q14 0 27 21l198 428q8 16 33 16h219q25 0 25 -22q0 -15 -6 -27l-408 -831q-9 -17 -14 -62l-64 -448q-1 -15 -11.5 -24t-25.5 -9z" />
<glyph unicode="&#x2c6;" horiz-adv-x="702" d="M461 1421h180q21 0 31 -16l127 -272q4 -8 4 -21q0 -12 -9.5 -20.5t-21.5 -8.5h-119q-11 0 -22 11l-76 127q-8 8 -18 8q-11 0 -19 -8l-102 -127q-11 -11 -23 -11h-119q-12 0 -21 8.5t-9 20.5q0 13 4 21l184 272q12 16 29 16z" />
<glyph unicode="&#x2dc;" horiz-adv-x="827" d="M942 1430q0 -128 -48.5 -183t-152.5 -55q-60 0 -141 47q-3 2 -12 7t-12.5 7t-12 6.5t-12 6t-11.5 5.5t-12.5 5.5t-11.5 3.5t-12 3t-11 2t-12 1q-84 0 -96 -72q-2 -24 -31 -24h-73q-25 0 -25 22v9q0 114 64 174.5t167 60.5q69 0 136 -43q64 -41 108 -41q34 0 55.5 12.5 t26.5 51.5q3 22 33 22h63q33 0 33 -28z" />
<glyph unicode="&#x2000;" horiz-adv-x="920" />
<glyph unicode="&#x2001;" horiz-adv-x="1841" />
<glyph unicode="&#x2002;" horiz-adv-x="920" />
<glyph unicode="&#x2003;" horiz-adv-x="1841" />
<glyph unicode="&#x2004;" horiz-adv-x="613" />
<glyph unicode="&#x2005;" horiz-adv-x="460" />
<glyph unicode="&#x2006;" horiz-adv-x="306" />
<glyph unicode="&#x2007;" horiz-adv-x="306" />
<glyph unicode="&#x2008;" horiz-adv-x="230" />
<glyph unicode="&#x2009;" horiz-adv-x="368" />
<glyph unicode="&#x200a;" horiz-adv-x="102" />
<glyph unicode="&#x2010;" horiz-adv-x="724" d="M688 610q27 0 27 -32l-29 -172q-6 -29 -37 -29h-459q-28 0 -28 33l31 172q6 28 34 28h461z" />
<glyph unicode="&#x2011;" horiz-adv-x="724" d="M688 610q27 0 27 -32l-29 -172q-6 -29 -37 -29h-459q-28 0 -28 33l31 172q6 28 34 28h461z" />
<glyph unicode="&#x2012;" horiz-adv-x="724" d="M688 610q27 0 27 -32l-29 -172q-6 -29 -37 -29h-459q-28 0 -28 33l31 172q6 28 34 28h461z" />
<glyph unicode="&#x2013;" horiz-adv-x="1404" d="M276 631h1012q35 0 35 -31l-33 -178q-6 -29 -28 -29h-1012q-15 0 -25 8.5t-10 24.5l33 176q6 29 28 29z" />
<glyph unicode="&#x2014;" horiz-adv-x="2031" d="M276 631h1643q35 0 35 -31l-33 -178q-6 -29 -29 -29h-1642q-15 0 -25 8.5t-10 24.5l33 176q6 29 28 29z" />
<glyph unicode="&#x2018;" horiz-adv-x="585" d="M618 1124q0 -68 -48 -115.5t-115 -47.5q-68 0 -116 48t-48 115q0 122 49 242q34 86 84.5 139.5t107.5 53.5q17 0 39 -11q47 -27 47 -61q0 -10 -4.5 -25t-10 -28.5t-16 -38.5t-16.5 -41q-20 -55 -20 -97q67 -45 67 -133z" />
<glyph unicode="&#x2019;" horiz-adv-x="548" d="M303 1395q0 67 48.5 115.5t115.5 48.5t115.5 -48.5t48.5 -115.5q0 -122 -49 -242q-34 -86 -84.5 -139t-108.5 -53q-19 0 -39 10q-47 27 -47 61q0 10 4.5 25t10 28.5t16 38.5t16.5 41q21 58 21 97q-68 46 -68 133z" />
<glyph unicode="&#x201a;" horiz-adv-x="571" d="M123 141q0 71 51 121.5t123 50.5q71 0 121.5 -50.5t50.5 -121.5q0 -132 -51 -256q-35 -90 -88.5 -146t-114.5 -56q-21 0 -41 10q-53 27 -53 59q0 12 7.5 33.5t22.5 57t23 57.5q21 69 21 100q-72 50 -72 141z" />
<glyph unicode="&#x201c;" horiz-adv-x="995" d="M618 1124q0 -68 -48 -115.5t-115 -47.5q-68 0 -116 48t-48 115q0 122 49 242q34 86 84.5 139.5t107.5 53.5q17 0 39 -11q47 -27 47 -61q0 -10 -4.5 -25t-10 -28.5t-16 -38.5t-16.5 -41q-20 -55 -20 -97q67 -45 67 -133zM1030 1124q0 -67 -48 -115t-116 -48t-116 48 t-48 115q0 119 50 242q34 86 84.5 139.5t107.5 53.5q17 0 39 -11q47 -27 47 -61q0 -10 -4.5 -25t-10 -28.5t-16 -38.5t-16.5 -41q-20 -55 -20 -97q67 -45 67 -133z" />
<glyph unicode="&#x201d;" horiz-adv-x="948" d="M702 1395q0 67 48 115.5t116 48.5t116 -48.5t48 -115.5q0 -122 -49 -242q-34 -86 -84.5 -139t-108.5 -53q-18 0 -38 10q-48 27 -48 61q0 12 6 30t20.5 52t21.5 51q20 55 20 97q-68 46 -68 133zM291 1395q0 67 48.5 115.5t115.5 48.5t115 -48t48 -116q0 -122 -49 -242 q-34 -86 -84 -139t-108 -53q-19 0 -39 10q-47 27 -47 61q0 10 4.5 25t10 28.5t16 38.5t16.5 41q20 55 20 97q-67 45 -67 133z" />
<glyph unicode="&#x201e;" horiz-adv-x="1026" d="M123 141q0 71 51 121.5t123 50.5q71 0 121.5 -50.5t50.5 -121.5q0 -132 -51 -256q-35 -90 -88.5 -146t-114.5 -56q-21 0 -41 10q-53 27 -53 59q0 12 7.5 33.5t22.5 57t23 57.5q21 69 21 100q-72 50 -72 141zM578 141q0 71 51 121.5t123 50.5q70 0 121 -50.5t51 -121.5 q0 -130 -52 -256q-35 -91 -88 -146.5t-114 -55.5q-21 0 -41 10q-54 27 -54 59q0 12 8 33.5t23 57t23 57.5q20 66 20 100q-71 49 -71 141z" />
<glyph unicode="&#x2022;" horiz-adv-x="598" d="M401 899q83 0 140 -57t57 -140q0 -85 -56 -140.5t-141 -55.5t-140.5 55.5t-55.5 140.5q0 83 56.5 140t139.5 57z" />
<glyph unicode="&#x2026;" horiz-adv-x="1945" d="M143 139q0 72 51 123t123 51t123.5 -51t51.5 -123t-51.5 -123t-123.5 -51t-123 51t-51 123zM819 139q0 72 51 123t123 51t123 -51t51 -123t-51 -123t-123 -51t-123 51t-51 123zM1495 139q0 72 51 123t123 51t123 -51t51 -123t-51 -123t-123 -51t-123 51t-51 123z" />
<glyph unicode="&#x202f;" horiz-adv-x="368" />
<glyph unicode="&#x2039;" horiz-adv-x="737" d="M371 92q-16 0 -23 17l-160 366q-6 12 -6 27q0 17 13 33l266 368q13 17 28 17h244q25 0 25 -23q0 -13 -8 -25l-267 -354q-6 -6 -6 -20q0 -8 37 -98t74 -176l37 -85q0 -1 1 -5t1 -5q0 -15 -10 -26t-25 -11h-221z" />
<glyph unicode="&#x203a;" horiz-adv-x="737" d="M403 92h-241q-25 0 -25 25q0 16 6 22l281 373q6 12 6 16v15q-6 15 -48 98t-79 158.5t-37 83.5q0 15 9 26t24 11h223q16 0 23 -17l162 -368q6 -12 6 -21q0 -18 -17 -39l-264 -366q-10 -17 -29 -17z" />
<glyph unicode="&#x205f;" horiz-adv-x="460" />
<glyph unicode="&#x20ac;" horiz-adv-x="1265" d="M303 377l19 133h-179q-11 0 -18.5 6.5t-7.5 18.5v8l26 90q9 33 50 33h151l16 110h-116q-29 0 -29 33l27 90q11 33 49 33h90l16 117q28 198 158.5 303.5t351.5 105.5q197 0 298.5 -89t101.5 -245q0 -28 -7 -75q-3 -31 -34 -31h-228q-26 0 -26 26q4 32 4 48q0 133 -135 133 q-171 0 -197 -197l-14 -96h467q26 0 26 -27v-8l-33 -88q-11 -33 -57 -33h-424l-16 -110h405q27 0 27 -35l-33 -88q-6 -16 -23 -24.5t-36 -8.5h-363l-14 -113q-4 -36 -4 -55q0 -141 143 -141q159 0 185 180q3 27 32 27h228q26 0 26 -23v-8q-14 -97 -44.5 -168.5t-86 -128 t-146 -85t-214.5 -28.5q-199 0 -308.5 85t-109.5 243q0 39 6 82z" />
<glyph unicode="&#x2122;" horiz-adv-x="1490" d="M516 788h-149q-15 0 -15 13v2l72 473v4q1 4 -2.5 7t-9.5 3h-144q-12 0 -12 13q0 21 12 108q3 14 17 14h491q12 0 12 -12v-2l-12 -106q-6 -15 -16 -15h-142q-14 0 -14 -14l-72 -473q0 -15 -16 -15zM942 1425h143q11 0 11 -8l86 -317q3 -8 10 -8q9 0 14 8l162 317q8 8 14 8 h156q12 0 12 -10v-4l-86 -608q-4 -15 -16 -15h-117q-12 0 -12 13q0 25 13.5 96t13.5 96q0 11 -13 11q-9 0 -12 -9l-129 -198q-9 -9 -12 -9h-60q-8 0 -14 11l-55 196q0 9 -11 9q-16 0 -16 -15l-27 -186q0 -15 -16 -15h-129q-12 0 -12 11v4l88 608q0 14 14 14z" />
<glyph unicode="&#x25fc;" horiz-adv-x="1013" d="M0 1014h1014v-1014h-1014v1014z" />
</font>
</defs>
</svg>
